<?xml version="1.0" encoding="utf-8"?>
<!-- Generator: Adobe Illustrator 17.0.0, SVG Export Plug-In . SVG Version: 6.00 Build 0)  -->
<!DOCTYPE svg PUBLIC "-//W3C//DTD SVG 1.1 Tiny//EN" "http://www.w3.org/Graphics/SVG/1.1/DTD/svg11-tiny.dtd">
<svg version="1.1" baseProfile="tiny" id="Calque_1"
	 xmlns="http://www.w3.org/2000/svg" xmlns:xlink="http://www.w3.org/1999/xlink" x="0px" y="0px" width="36px" height="40px"
	 viewBox="0 0 36 40" xml:space="preserve">
<g>
	<path d="M17.747,4.118V3.039c0,0,0-1.301-1.302-1.301c-1.301,0-1.301,1.301-1.301,1.301v1.126
		c-2.793,4.499-1.67,23.655-1.67,23.655s0.661-2.796,3.019-2.796c2.027,0,2.793,2.796,2.793,2.796S20.509,8.524,17.747,4.118
		 M22.749,34.356c0,0,0-1.303-1.301-1.303c-1.302,0-1.302,1.303-1.302,1.303s0,1.3-1.303,1.3c-1.302,0-1.302-1.3-1.302-1.3v-6.355
		c0,0,0-1.3-1.302-1.3c-1.302,0-1.302,1.3-1.302,1.3v6.355c0,0,0,3.906,3.905,3.906C22.749,38.262,22.749,34.356,22.749,34.356"/>
</g>
</svg>
