<?xml version="1.0" encoding="utf-8"?>
<!-- Generator: Adobe Illustrator 17.0.0, SVG Export Plug-In . SVG Version: 6.00 Build 0)  -->
<!DOCTYPE svg PUBLIC "-//W3C//DTD SVG 1.1 Tiny//EN" "http://www.w3.org/Graphics/SVG/1.1/DTD/svg11-tiny.dtd">
<svg version="1.1" baseProfile="tiny" id="Calque_1"
	 xmlns="http://www.w3.org/2000/svg" xmlns:xlink="http://www.w3.org/1999/xlink" x="0px" y="0px" width="36px" height="40px"
	 viewBox="0 0 36 40" xml:space="preserve">
<g>
	<path d="M17.023,26.79v7.502c0,0,0,3.889,3.887,3.889c3.888,0,3.888-3.889,3.888-3.889s0-1.296-1.296-1.296
		c-1.296,0-1.296,1.296-1.296,1.296s0,1.296-1.297,1.296c-1.296,0-1.296-1.296-1.296-1.296V26.79c0,0,0-1.297-1.296-1.297
		C17.023,25.493,17.023,26.79,17.023,26.79 M19.598,4.231V3.116c0,0,0-1.297-1.296-1.297c-1.296,0-1.296,1.297-1.296,1.297v1.236
		C13.372,8.825,6.375,26.02,6.375,26.02c4.211-6.615,8.285,0,8.285,0c3.586-6.372,7.081,0,7.081,0c3.69-6.22,7.884,0,7.884,0
		S23.029,8.505,19.598,4.231"/>
</g>
</svg>
