<?xml version="1.0" encoding="utf-8"?>
<!-- Generator: Adobe Illustrator 17.0.0, SVG Export Plug-In . SVG Version: 6.00 Build 0)  -->
<!DOCTYPE svg PUBLIC "-//W3C//DTD SVG 1.1 Tiny//EN" "http://www.w3.org/Graphics/SVG/1.1/DTD/svg11-tiny.dtd">
<svg version="1.1" baseProfile="tiny" id="Calque_1"
	 xmlns="http://www.w3.org/2000/svg" xmlns:xlink="http://www.w3.org/1999/xlink" x="0px" y="0px" width="36px" height="40px"
	 viewBox="0 0 36 40" xml:space="preserve">
<g>
	<path d="M16.826,21.013V31.18c0,0,0,3.04,3.042,3.04c3.041,0,3.041-3.04,3.041-3.04s0-1.014-1.014-1.014
		c-1.013,0-1.013,1.014-1.013,1.014s0,1.014-1.014,1.014c-1.014,0-1.014-1.014-1.014-1.014V21.013c0,0,0-1.013-1.014-1.013
		C16.826,20,16.826,21.013,16.826,21.013 M18.842,6.67c-0.031-0.256-0.185-0.89-1.001-0.89c-0.971,0-1.01,0.906-1.012,0.986
		C5.136,7.917,0.236,20.235,0.236,20.235c6.503-6.504,12.661,0,12.661,0c5.698-5.698,10.82,0,10.82,0c5.813-5.813,12.047,0,12.047,0
		S31.594,6.861,18.842,6.67"/>
</g>
</svg>
