<?xml version="1.0" encoding="utf-8"?>
<!-- Generator: Adobe Illustrator 17.0.0, SVG Export Plug-In . SVG Version: 6.00 Build 0)  -->
<!DOCTYPE svg PUBLIC "-//W3C//DTD SVG 1.1 Tiny//EN" "http://www.w3.org/Graphics/SVG/1.1/DTD/svg11-tiny.dtd">
<svg version="1.1" baseProfile="tiny" id="Calque_1"
	 xmlns="http://www.w3.org/2000/svg" xmlns:xlink="http://www.w3.org/1999/xlink" x="0px" y="0px" width="65.2px" height="65.2px"
	 viewBox="0 0 65.2 65.2" xml:space="preserve">
<g>
	<g id="GRIS">
		<g>
			<path fill="#737176" d="M54.757,26.735c0,0,0-10.161-11.561-10.161c-11.622,0-10.587,10.161-10.587,10.161s-8.762,0-8.762,7.727
				c0,7.728,7.728,7.728,7.728,7.728h23.182c0,0,7.727,0,7.727-7.728C62.484,26.735,54.757,26.735,54.757,26.735
				s-6.857-0.788-7.727,3.901"/>
		</g>
		<g>
			<path fill="#272824" d="M54.757,43.19H31.575c-3.019,0-8.728-1.824-8.728-8.729c0-6.903,6.385-8.727,9.762-8.727l0.002,2
				c-0.317,0.001-7.764,0.106-7.764,6.727c0,6.614,6.456,6.727,6.731,6.729h23.179c0.272-0.002,6.728-0.114,6.728-6.729
				c0-6.65-6.453-6.727-6.728-6.727l-0.112-0.006c-0.062-0.006-5.942-0.623-6.631,3.09l-1.967-0.365
				c0.817-4.405,6.062-5.014,8.768-4.718c3.033,0.023,8.67,1.868,8.67,8.727C63.484,41.366,57.775,43.19,54.757,43.19z"/>
		</g>
		<g>
			<path fill="#272824" d="M32.922,29.456c-1.059-0.945-1.142-2.511-1.148-2.687c-0.014-0.12-0.427-4.541,2.542-7.826
				c2.02-2.235,5.062-3.369,9.045-3.369c3.945,0,7.051,1.123,9.23,3.337c3.202,3.255,3.169,7.654,3.166,7.84l-2-0.029
				c0.001-0.038,0.01-3.778-2.607-6.424c-1.789-1.808-4.409-2.724-7.789-2.724c-3.384,0-5.924,0.907-7.549,2.696
				c-2.374,2.614-2.046,6.33-2.043,6.367c0.015,0.286,0.125,1.006,0.485,1.327L32.922,29.456z"/>
		</g>
	</g>
	<g id="BLANC">
		<g>
			<path fill="#FFFFFF" d="M41.05,33.301c0,0,0-10.161-11.561-10.161c-11.622,0-10.587,10.161-10.587,10.161s-8.762,0-8.762,7.727
				c0,7.728,7.728,7.728,7.728,7.728H41.05c0,0,7.727,0,7.727-7.728C48.777,33.301,41.05,33.301,41.05,33.301
				s-6.857-0.788-7.727,3.901"/>
		</g>
		<g>
			<path fill="#272824" d="M41.05,49.756H17.868c-3.019,0-8.728-1.824-8.728-8.728s6.386-8.727,9.762-8.727l0.002,2
				c-0.317,0.002-7.764,0.106-7.764,6.728c0,6.651,6.453,6.728,6.728,6.728H41.05c0.272-0.002,6.728-0.114,6.728-6.728
				c0-6.65-6.453-6.728-6.728-6.728l-0.112-0.006c-0.062-0.008-5.942-0.622-6.631,3.09L32.34,37.02
				c0.817-4.404,6.064-5.012,8.768-4.718c3.033,0.023,8.67,1.868,8.67,8.727C49.777,47.932,44.068,49.756,41.05,49.756z"/>
		</g>
		<g>
			<path fill="#272824" d="M19.063,36.021c-1.06-0.944-1.143-2.511-1.149-2.686c-0.014-0.12-0.427-4.541,2.541-7.826
				c2.02-2.235,5.063-3.369,9.045-3.369c12.418,0,12.562,11.049,12.562,11.161h-2h1l-1,0.003c-0.002-0.375-0.17-9.164-10.562-9.164
				c-3.384,0-5.924,0.907-7.548,2.696c-2.375,2.614-2.047,6.33-2.043,6.367c0.015,0.286,0.125,1.005,0.485,1.327L19.063,36.021z"/>
		</g>
	</g>
	<g id="BARRE_NIEGE">
		<rect x="20.245" y="47.342" fill="#FFFFFF" width="12.505" height="2.454"/>
	</g>
	<g id="NEIGE">
		<path fill="#FFFFFF" d="M16.613,49.483l0.086-0.243c0.668-1.885,2.553-1.218,2.553-1.218l1.806,0.64l-0.479-1.855
			c0,0-0.501-1.937,1.435-2.437l0.25-0.065c0,0,1.936-0.501,2.437,1.435l0.621,2.401l1.872-1.627
			c1.509-1.312,2.821,0.198,2.821,0.198l0.17,0.195c1.312,1.509-0.198,2.821-0.198,2.821l-1.713,1.489l2.14,0.758
			c1.885,0.668,1.218,2.553,1.218,2.553l-0.087,0.243c-0.667,1.885-2.552,1.218-2.552,1.218l-1.807-0.64l0.48,1.855
			c0,0,0.501,1.937-1.436,2.437l-0.25,0.065c0,0-1.936,0.501-2.437-1.435l-0.621-2.401l-1.871,1.627
			c-1.51,1.312-2.822-0.198-2.822-0.198l-0.169-0.195c-1.312-1.509,0.197-2.821,0.197-2.821l1.713-1.489l-2.139-0.758
			C15.945,51.368,16.613,49.483,16.613,49.483z"/>
		<path fill="#27348B" d="M25.438,60.265c-1.205,0-2.072-0.682-2.379-1.869l-0.419-1.618l-1.261,1.097
			c-0.503,0.438-1.046,0.658-1.614,0.658c-1.113,0-1.881-0.868-1.913-0.905l-0.17-0.195c-0.659-0.759-0.829-1.645-0.478-2.495
			c0.251-0.607,0.677-0.989,0.725-1.03l1.066-0.927l-1.331-0.472c-0.948-0.336-1.532-1.023-1.645-1.938
			c-0.081-0.652,0.102-1.194,0.123-1.254l0.086-0.243c0.38-1.074,1.188-1.665,2.274-1.665c0.498,0,0.876,0.128,0.917,0.143
			l0.919,0.326l-0.244-0.945c-0.016-0.061-0.15-0.617-0.013-1.26c0.192-0.9,0.834-1.534,1.808-1.786l0.249-0.064
			c0.031-0.008,0.299-0.075,0.668-0.075c1.205,0,2.072,0.682,2.379,1.869l0.419,1.618l1.262-1.097
			c0.502-0.438,1.045-0.658,1.614-0.658c1.113,0,1.88,0.868,1.913,0.905l0.17,0.195c0.66,0.759,0.829,1.645,0.478,2.495
			c-0.251,0.608-0.677,0.989-0.725,1.031l-1.066,0.926l1.332,0.472c1.864,0.661,1.811,2.377,1.522,3.192l-0.087,0.244
			c-0.379,1.072-1.187,1.664-2.273,1.664c-0.498,0-0.875-0.128-0.917-0.143l-0.92-0.326l0.245,0.944
			c0.016,0.061,0.151,0.617,0.014,1.261c-0.193,0.899-0.835,1.533-1.809,1.785l-0.249,0.064
			C26.076,60.197,25.808,60.265,25.438,60.265z M23.204,54.963l0.823,3.183c0.195,0.753,0.657,1.119,1.412,1.119
			c0.242,0,0.417-0.043,0.419-0.043l0.246-0.064c0.615-0.159,0.968-0.495,1.082-1.027c0.088-0.412-0.002-0.797-0.003-0.801
			l-0.716-2.767l2.694,0.955l0,0c0,0,0.256,0.086,0.583,0.086c0.658,0,1.093-0.327,1.331-1l0.087-0.244
			c0.08-0.232,0.416-1.442-0.915-1.913l-2.948-1.044l2.36-2.052c0.186-0.165,1.074-1.051,0.148-2.115l-0.17-0.195
			c-0.003-0.004-0.507-0.562-1.158-0.562c-0.32,0-0.643,0.139-0.958,0.412l-2.482,2.157l-0.823-3.183
			c-0.195-0.753-0.657-1.119-1.412-1.119c-0.242,0-0.417,0.043-0.419,0.043l-0.246,0.064c-1.367,0.354-1.137,1.587-1.077,1.831
			l0.713,2.763l-2.692-0.953l0,0c0,0-0.256-0.086-0.583-0.086c-0.658,0-1.093,0.326-1.332,0.999l-0.086,0.243
			c-0.08,0.234-0.417,1.443,0.914,1.914l2.947,1.044l-2.36,2.052c-0.186,0.165-1.074,1.051-0.148,2.115l0.17,0.195
			c0.002,0.004,0.506,0.562,1.158,0.562c0.32,0,0.643-0.139,0.958-0.413L23.204,54.963z"/>
	</g>
	<g id="NEIGE__x2B__GOUTTE_1">
		<path fill="#FFFFFF" d="M31.613,42.483l0.086-0.243c0.668-1.885,2.553-1.218,2.553-1.218l1.806,0.64l-0.479-1.855
			c0,0-0.501-1.937,1.435-2.437l0.25-0.065c0,0,1.936-0.501,2.437,1.435l0.621,2.401l1.872-1.627
			c1.509-1.312,2.821,0.198,2.821,0.198l0.17,0.195c1.312,1.509-0.198,2.821-0.198,2.821l-1.713,1.489l2.14,0.758
			c1.885,0.668,1.218,2.553,1.218,2.553l-0.087,0.243c-0.667,1.885-2.552,1.218-2.552,1.218l-1.807-0.64l0.48,1.855
			c0,0,0.501,1.937-1.436,2.437l-0.25,0.065c0,0-1.936,0.501-2.437-1.435l-0.621-2.401l-1.871,1.627
			c-1.51,1.312-2.822-0.198-2.822-0.198l-0.169-0.195c-1.312-1.509,0.197-2.821,0.197-2.821l1.713-1.489l-2.139-0.758
			C30.945,44.368,31.613,42.483,31.613,42.483z"/>
		<path fill="#27348B" d="M40.438,53.265c-1.205,0-2.072-0.682-2.38-1.869l-0.418-1.618l-1.262,1.097
			c-0.503,0.438-1.046,0.658-1.614,0.658c-1.113,0-1.881-0.868-1.913-0.905l-0.17-0.195c-0.659-0.759-0.829-1.645-0.478-2.495
			c0.251-0.607,0.677-0.989,0.725-1.03l1.066-0.927l-1.331-0.472c-0.948-0.336-1.532-1.023-1.645-1.938
			c-0.081-0.652,0.102-1.194,0.123-1.254l0.086-0.243c0.38-1.074,1.188-1.665,2.274-1.665c0.498,0,0.875,0.128,0.917,0.143
			l0.92,0.326l-0.244-0.945c-0.016-0.061-0.15-0.617-0.013-1.26c0.191-0.9,0.833-1.534,1.807-1.786l0.248-0.064
			c0.031-0.008,0.299-0.075,0.669-0.075c1.205,0,2.072,0.682,2.38,1.869l0.418,1.618l1.262-1.097
			c0.503-0.438,1.046-0.658,1.614-0.658c1.113,0,1.881,0.868,1.913,0.905l0.169,0.195c0.478,0.549,0.697,1.143,0.653,1.765
			c-0.071,1.03-0.867,1.732-0.9,1.762l-1.066,0.926l1.333,0.472c1.863,0.661,1.811,2.377,1.522,3.192l-0.088,0.244
			c-0.38,1.072-1.187,1.664-2.272,1.664c-0.498,0-0.875-0.128-0.917-0.143l-0.921-0.327l0.245,0.945
			c0.016,0.061,0.15,0.617,0.013,1.261c-0.192,0.899-0.835,1.533-1.809,1.785l-0.248,0.064
			C41.075,53.197,40.808,53.265,40.438,53.265z M38.203,47.963l0.824,3.183c0.194,0.753,0.656,1.119,1.41,1.119
			c0.242,0,0.418-0.043,0.419-0.043l0.246-0.064c0.615-0.159,0.969-0.495,1.083-1.027c0.088-0.412-0.003-0.797-0.004-0.801
			l-0.716-2.766l2.694,0.954l0,0c0,0,0.256,0.086,0.583,0.086c0.657,0,1.093-0.327,1.33-1l0.088-0.244
			c0.079-0.232,0.416-1.442-0.914-1.913l-2.948-1.044l2.359-2.052c0.186-0.165,1.075-1.051,0.149-2.115l-0.17-0.195
			c-0.004-0.004-0.508-0.562-1.158-0.562c-0.32,0-0.643,0.139-0.958,0.413l-2.48,2.156l-0.824-3.183
			c-0.194-0.753-0.656-1.119-1.411-1.119c-0.242,0-0.418,0.043-0.42,0.043l-0.245,0.064c-0.614,0.159-0.968,0.494-1.081,1.026
			c-0.088,0.413,0.003,0.798,0.004,0.802l0.713,2.766l-2.691-0.953l0,0c0,0-0.256-0.086-0.583-0.086
			c-0.658,0-1.093,0.326-1.332,0.999l-0.086,0.243c-0.08,0.234-0.417,1.443,0.914,1.914l2.947,1.044l-2.359,2.052
			c-0.186,0.165-1.074,1.051-0.148,2.115l0.17,0.195c0.002,0.004,0.506,0.562,1.158,0.562c0.32,0,0.643-0.139,0.958-0.413
			L38.203,47.963z"/>
	</g>
</g>
<g>
</g>
<g>
</g>
</svg>
