<?xml version="1.0" encoding="utf-8"?>
<!-- Generator: Adobe Illustrator 17.0.0, SVG Export Plug-In . SVG Version: 6.00 Build 0)  -->
<!DOCTYPE svg PUBLIC "-//W3C//DTD SVG 1.1 Tiny//EN" "http://www.w3.org/Graphics/SVG/1.1/DTD/svg11-tiny.dtd">
<svg version="1.1" baseProfile="tiny" id="Calque_1"
	 xmlns="http://www.w3.org/2000/svg" xmlns:xlink="http://www.w3.org/1999/xlink" x="0px" y="0px" width="65.2px" height="65.2px"
	 viewBox="0 0 65.2 65.2" xml:space="preserve">
<g>
</g>
<g id="LUNE">
	<g>
		<circle fill="#706F6F" cx="37.78" cy="31.49" r="13.292"/>
		<path fill="#706F6F" d="M37.779,45.281c-7.604,0-13.791-6.187-13.791-13.792c0-7.604,6.187-13.792,13.791-13.792
			s13.792,6.187,13.792,13.792C51.571,39.095,45.384,45.281,37.779,45.281z M37.779,18.698c-7.053,0-12.791,5.738-12.791,12.792
			s5.738,12.792,12.791,12.792c7.054,0,12.792-5.738,12.792-12.792S44.833,18.698,37.779,18.698z"/>
	</g>
	<g>
		<path fill="#EDEDED" d="M34.629,27.119c0-3.313,1.233-6.331,3.253-8.643c-0.079-0.001-0.155-0.012-0.234-0.012
			c-7.267,0-13.159,5.891-13.159,13.159s5.891,13.159,13.159,13.159c3.952,0,7.488-1.751,9.9-4.509
			C40.39,40.145,34.629,34.307,34.629,27.119z"/>
		<path fill="#706F6F" d="M37.647,45.281c-7.531,0-13.658-6.127-13.658-13.658s6.127-13.659,13.658-13.659
			c0.055,0,0.108,0.003,0.161,0.007l1.074,0.02l-0.624,0.813c-2.019,2.311-3.13,5.263-3.13,8.314
			c0,6.854,5.575,12.531,12.428,12.653l1.075,0.02l-0.708,0.81C45.324,43.575,41.578,45.281,37.647,45.281z M36.817,19
			c-6.636,0.463-11.828,5.948-11.828,12.623c0,6.979,5.678,12.658,12.658,12.658c3.291,0,6.441-1.291,8.797-3.572
			c-6.885-0.682-12.315-6.562-12.315-13.59C34.129,24.191,35.077,21.348,36.817,19z"/>
	</g>
	<g>
		<polygon fill="#FFFFFF" points="20.231,34.797 21.094,40.036 26.334,40.899 21.094,41.762 20.231,47.002 19.368,41.762 
			14.129,40.899 19.368,40.036 		"/>
		<path fill="#706F6F" d="M20.231,48.54l-1.081-6.561l-6.561-1.08l6.561-1.081l1.081-6.56l1.081,6.56l6.561,1.081l-6.56,1.08
			L20.231,48.54z M15.667,40.899l3.919,0.645l0.645,3.92l0.646-3.92l3.918-0.645l-3.918-0.646l-0.646-3.919l-0.645,3.919
			L15.667,40.899z"/>
	</g>
</g>
</svg>
