<?xml version="1.0" encoding="utf-8"?>
<!-- Generator: Adobe Illustrator 17.0.0, SVG Export Plug-In . SVG Version: 6.00 Build 0)  -->
<!DOCTYPE svg PUBLIC "-//W3C//DTD SVG 1.1 Tiny//EN" "http://www.w3.org/Graphics/SVG/1.1/DTD/svg11-tiny.dtd">
<svg version="1.1" baseProfile="tiny" id="Calque_1"
	 xmlns="http://www.w3.org/2000/svg" xmlns:xlink="http://www.w3.org/1999/xlink" x="0px" y="0px" width="65.2px" height="65.2px"
	 viewBox="0 0 65.2 65.2" xml:space="preserve">
<g id="ENSEMBLE">
	<g>
		<g id="GRIS">
			<g>
				<path fill="#737176" d="M53.989,26.736c0,0,0-10.161-11.561-10.161c-11.622,0-10.587,10.161-10.587,10.161s-8.762,0-8.762,7.727
					c0,7.728,7.728,7.728,7.728,7.728h23.182c0,0,7.727,0,7.727-7.728C61.716,26.736,53.989,26.736,53.989,26.736
					s-6.857-0.788-7.727,3.901"/>
			</g>
			<g>
				<path fill="#272824" d="M53.989,43.191H30.807c-3.019,0-8.728-1.824-8.728-8.729c0-6.903,6.386-8.727,9.762-8.727l0.002,2
					c-0.317,0.001-7.764,0.106-7.764,6.727c0,6.614,6.456,6.727,6.731,6.729h23.179c0.272-0.002,6.727-0.114,6.727-6.729
					c0-6.65-6.452-6.727-6.727-6.727l-0.112-0.006c-0.062-0.005-5.943-0.622-6.631,3.089l-1.967-0.364
					c0.816-4.405,6.061-5.014,8.768-4.719c3.033,0.023,8.669,1.868,8.669,8.727C62.716,41.367,57.008,43.191,53.989,43.191z"/>
			</g>
			<g>
				<path fill="#272824" d="M32.155,29.458c-1.06-0.945-1.143-2.512-1.149-2.687c-0.014-0.12-0.427-4.541,2.542-7.826
					c2.02-2.235,5.063-3.369,9.045-3.369c3.945,0,7.051,1.123,9.23,3.337c3.202,3.255,3.169,7.654,3.166,7.84l-2-0.029
					c0.001-0.038,0.01-3.778-2.607-6.424c-1.789-1.808-4.409-2.724-7.789-2.724c-3.393,0-5.937,0.912-7.562,2.71
					c-2.379,2.633-2.035,6.313-2.031,6.35c0.015,0.288,0.126,1.009,0.486,1.329L32.155,29.458z"/>
			</g>
		</g>
		<g id="BLANC">
			<g>
				<path fill="#FFFFFF" d="M40.282,33.302c0,0,0-10.161-11.561-10.161c-11.622,0-10.587,10.161-10.587,10.161s-8.762,0-8.762,7.727
					c0,7.728,7.728,7.728,7.728,7.728h23.182c0,0,7.727,0,7.727-7.728C48.009,33.302,40.282,33.302,40.282,33.302
					s-6.857-0.788-7.727,3.901"/>
			</g>
			<g>
				<path fill="#272824" d="M40.282,49.757H17.101c-3.019,0-8.728-1.824-8.728-8.728s6.385-8.727,9.762-8.727l0.002,2
					c-0.317,0.002-7.764,0.106-7.764,6.728c0,6.651,6.453,6.728,6.728,6.728h23.182c0.272-0.002,6.728-0.114,6.728-6.728
					c0-6.65-6.453-6.728-6.728-6.728l-0.112-0.006c-0.062-0.007-5.942-0.624-6.631,3.09l-1.967-0.365
					c0.817-4.404,6.055-5.014,8.768-4.718c3.033,0.023,8.67,1.868,8.67,8.727C49.01,47.933,43.301,49.757,40.282,49.757z"/>
			</g>
			<g>
				<path fill="#272824" d="M18.295,36.023c-1.06-0.944-1.143-2.512-1.148-2.688c-0.014-0.119-0.427-4.54,2.541-7.826
					c2.02-2.235,5.063-3.369,9.045-3.369c12.417,0,12.561,11.049,12.561,11.161h-2h1l-1,0.003c-0.002-0.375-0.17-9.164-10.561-9.164
					c-3.384,0-5.924,0.907-7.548,2.696c-2.375,2.614-2.047,6.33-2.043,6.367c0.015,0.286,0.125,1.006,0.485,1.328L18.295,36.023z"/>
			</g>
		</g>
		<g id="BARRE_ORAGE">
			<rect x="16.569" y="47.175" fill="#FFFFFF" width="23.5" height="2.641"/>
		</g>
		<g id="ECLAIR_1_">
			<polygon fill="#EA5813" points="9.913,60.537 19.192,52.177 16.955,47.513 35.704,38.608 23.677,48.893 25.996,53.176 			"/>
			<path fill="#FFFFFF" d="M10.017,60.765l-0.271-0.413l9.141-8.235l-2.264-4.721l18.975-9.013l0.27,0.416L23.993,48.952l2.351,4.34
				L10.017,60.765z M17.29,47.632l2.208,4.605l-8.206,7.394l14.357-6.571l-2.289-4.225l0.153-0.132l10.596-9.062L17.29,47.632z"/>
		</g>
		<g id="GOUTTE_2">
			<g>
				<path fill="#38286D" d="M40.345,48.066l-0.196-10.351l-8.186,5.859l0.016,0.008c-0.676,0.408-1.257,0.963-1.646,1.689
					c-1.264,2.356-0.162,5.407,2.458,6.812c2.621,1.402,5.769,0.627,7.031-1.727c0.389-0.726,0.529-1.517,0.495-2.305L40.345,48.066
					z"/>
			</g>
			<g>
				<path fill="#0095DB" d="M30.579,46.791c-0.332,1.833,0.639,3.833,2.539,4.851c2.306,1.234,5.076,0.553,6.187-1.52
					c0.342-0.638,0.466-1.334,0.435-2.028l0.025,0.014l-0.026-1.396c0.015,0.661-0.108,1.321-0.434,1.929
					c-1.111,2.072-3.881,2.754-6.187,1.52C31.726,49.415,30.833,48.139,30.579,46.791"/>
			</g>
			<g>
				<path fill="#FFFFFF" d="M32.722,45.831c0.121-0.39,0.065-0.771-0.12-1.031c-0.065-0.041-0.136-0.073-0.215-0.091
					c-0.487-0.117-1.031,0.265-1.214,0.853c-0.151,0.488-0.007,0.962,0.323,1.177C31.993,46.829,32.535,46.432,32.722,45.831"/>
			</g>
		</g>
	</g>
</g>
<g>
</g>
<g>
</g>
</svg>
