<?xml version="1.0" encoding="utf-8"?>
<!-- Generator: Adobe Illustrator 17.0.0, SVG Export Plug-In . SVG Version: 6.00 Build 0)  -->
<!DOCTYPE svg PUBLIC "-//W3C//DTD SVG 1.1 Tiny//EN" "http://www.w3.org/Graphics/SVG/1.1/DTD/svg11-tiny.dtd">
<svg version="1.1" baseProfile="tiny" id="Calque_1"
	 xmlns="http://www.w3.org/2000/svg" xmlns:xlink="http://www.w3.org/1999/xlink" x="0px" y="0px" width="65.2px" height="65.2px"
	 viewBox="0 0 65.2 65.2" xml:space="preserve">
<g>
</g>
<g>
</g>
<g id="LUNE_1_">
	<g>
		<circle fill="#706F6F" cx="23.203" cy="22.524" r="11.068"/>
		<path fill="#706F6F" d="M23.203,34.092c-6.378,0-11.568-5.189-11.568-11.567s5.189-11.568,11.568-11.568
			s11.567,5.189,11.567,11.568S29.582,34.092,23.203,34.092z M23.203,11.957c-5.827,0-10.568,4.741-10.568,10.568
			c0,5.827,4.741,10.567,10.568,10.567c5.827,0,10.567-4.741,10.567-10.567C33.771,16.697,29.03,11.957,23.203,11.957z"/>
	</g>
	<g>
		<path fill="#EDEDED" d="M20.58,18.885c0-2.759,1.026-5.271,2.708-7.197c-0.065-0.001-0.129-0.01-0.195-0.01
			c-6.051,0-10.957,4.906-10.957,10.957s4.906,10.957,10.957,10.957c3.291,0,6.235-1.458,8.243-3.754
			C25.377,29.731,20.58,24.87,20.58,18.885z"/>
		<path fill="#706F6F" d="M23.093,34.092c-6.317,0-11.457-5.14-11.457-11.457s5.14-11.457,11.457-11.457
			c0.047,0,0.093,0.003,0.139,0.006l1.001,0.072l-0.569,0.761c-1.667,1.908-2.585,4.347-2.585,6.868
			c0,5.663,4.605,10.352,10.266,10.453l1.076,0.02l-0.708,0.81C29.531,32.661,26.39,34.092,23.093,34.092z M22.228,12.222
			c-5.393,0.465-9.591,4.958-9.591,10.413c0,5.766,4.691,10.457,10.457,10.457c2.657,0,5.205-1.02,7.136-2.827
			c-5.688-0.656-10.149-5.546-10.149-11.38C20.08,16.489,20.836,14.161,22.228,12.222z"/>
	</g>
	<g>
		<polygon fill="#FFFFFF" points="8.591,25.278 9.31,29.64 13.672,30.359 9.31,31.078 8.591,35.44 7.872,31.078 3.51,30.359 
			7.872,29.64 		"/>
		<path fill="#706F6F" d="M8.591,36.979l-0.936-5.684l-5.684-0.936l5.684-0.936l0.936-5.684l0.936,5.684l5.684,0.936l-5.684,0.936
			L8.591,36.979z M5.047,30.359L8.09,30.86l0.501,3.042l0.501-3.042l3.042-0.501l-3.042-0.501l-0.501-3.042L8.09,29.858
			L5.047,30.359z"/>
	</g>
</g>
<g id="LUNE" display="none">
	<path display="inline" fill="#EDEDED" stroke="#706F6F" stroke-miterlimit="10" d="M17.159,11.085c0-2.297,0.855-4.39,2.255-5.994
		c-0.055-0.001-0.107-0.008-0.162-0.008c-5.04,0-9.125,4.085-9.125,9.125s4.085,9.125,9.125,9.125c2.74,0,5.192-1.214,6.865-3.127
		C21.154,20.118,17.159,16.069,17.159,11.085z"/>
	<polygon display="inline" fill="#FFFFFF" stroke="#706F6F" stroke-width="0.5" stroke-miterlimit="10" points="8.485,20.183 
		9.14,24.156 13.112,24.81 9.14,25.464 8.485,29.437 7.831,25.464 3.859,24.81 7.831,24.156 	"/>
</g>
<g id="GRIS">
	<g>
		<path fill="#737176" d="M54.757,26.736c0,0,0-10.161-11.561-10.161c-11.622,0-10.587,10.161-10.587,10.161s-8.762,0-8.762,7.727
			c0,7.728,7.728,7.728,7.728,7.728h23.182c0,0,7.727,0,7.727-7.728C62.484,26.736,54.757,26.736,54.757,26.736
			s-6.857-0.788-7.727,3.901"/>
	</g>
	<g>
		<path fill="#272824" d="M54.757,43.191H31.575c-3.019,0-8.728-1.824-8.728-8.729c0-6.903,6.385-8.727,9.762-8.727l0.002,2
			c-0.317,0.001-7.764,0.106-7.764,6.727c0,6.614,6.456,6.727,6.731,6.729h23.179c0.272-0.002,6.727-0.114,6.727-6.729
			c0-6.65-6.452-6.727-6.727-6.727l-0.112-0.006c-0.062-0.005-5.943-0.622-6.632,3.09l-1.967-0.365
			c0.817-4.404,6.062-5.013,8.769-4.718c3.033,0.023,8.669,1.868,8.669,8.727C63.483,41.367,57.775,43.191,54.757,43.191z"/>
	</g>
	<g>
		<path fill="#272824" d="M32.922,29.457c-1.059-0.945-1.143-2.511-1.148-2.687c-0.014-0.12-0.427-4.541,2.541-7.826
			c2.02-2.236,5.062-3.369,9.045-3.369c3.946,0,7.052,1.123,9.231,3.337c3.202,3.255,3.169,7.654,3.166,7.84l-2-0.029
			c0-0.038,0.01-3.778-2.607-6.423c-1.789-1.808-4.41-2.725-7.79-2.725c-3.393,0-5.937,0.912-7.561,2.709
			c-2.379,2.634-2.035,6.313-2.031,6.35c0.015,0.289,0.126,1.009,0.485,1.33L32.922,29.457z"/>
	</g>
</g>
<g id="BLANC">
	<g>
		<path fill="#FFFFFF" d="M41.05,33.302c0,0,0-10.161-11.561-10.161c-11.622,0-10.587,10.161-10.587,10.161s-8.762,0-8.762,7.727
			c0,7.728,7.728,7.728,7.728,7.728H41.05c0,0,7.727,0,7.727-7.728C48.777,33.302,41.05,33.302,41.05,33.302
			s-6.857-0.788-7.727,3.901"/>
	</g>
	<g>
		<path fill="#272824" d="M41.05,49.757H17.868c-3.019,0-8.728-1.824-8.728-8.728s6.386-8.727,9.762-8.727l0.002,2
			c-0.317,0.002-7.764,0.106-7.764,6.728c0,6.651,6.453,6.728,6.728,6.728H41.05c0.272-0.002,6.727-0.114,6.727-6.728
			s-6.454-6.726-6.729-6.728l-0.109-0.006c-0.062-0.007-5.942-0.624-6.632,3.09l-1.966-0.365c0.817-4.404,6.055-5.014,8.768-4.718
			c3.033,0.023,8.669,1.868,8.669,8.727C49.776,47.933,44.068,49.757,41.05,49.757z"/>
	</g>
	<g>
		<path fill="#272824" d="M19.063,36.023c-1.06-0.944-1.143-2.512-1.149-2.687c-0.014-0.12-0.427-4.541,2.541-7.826
			c2.02-2.235,5.063-3.369,9.045-3.369c12.417,0,12.561,11.049,12.561,11.161h-2h1l-1,0.003c-0.002-0.375-0.17-9.164-10.561-9.164
			c-3.384,0-5.924,0.907-7.548,2.696c-2.375,2.614-2.047,6.33-2.043,6.367c0.015,0.286,0.125,1.006,0.485,1.328L19.063,36.023z"/>
	</g>
</g>
<g id="BARRE_1_GOUTTE">
	<rect x="20.244" y="47.175" fill="#FFFFFF" width="9.479" height="2.622"/>
</g>
<g id="GOUTTE_1">
	<g>
		<path fill="#38286D" d="M28.248,55.084l-0.196-10.351l-8.186,5.859l0.016,0.008c-0.676,0.408-1.257,0.963-1.646,1.689
			c-1.264,2.356-0.162,5.407,2.458,6.812c2.621,1.402,5.769,0.627,7.031-1.727c0.389-0.726,0.529-1.517,0.495-2.305L28.248,55.084z"
			/>
	</g>
	<g>
		<path fill="#0095DB" d="M18.481,53.808c-0.332,1.833,0.639,3.833,2.539,4.851c2.306,1.234,5.076,0.553,6.187-1.52
			c0.342-0.638,0.466-1.334,0.435-2.028l0.025,0.014l-0.026-1.396c0.015,0.661-0.108,1.321-0.434,1.929
			c-1.111,2.072-3.881,2.754-6.187,1.52C19.628,56.432,18.735,55.156,18.481,53.808"/>
	</g>
	<g>
		<path fill="#FFFFFF" d="M20.625,52.848c0.121-0.39,0.065-0.771-0.12-1.031c-0.065-0.041-0.136-0.073-0.215-0.091
			c-0.487-0.117-1.031,0.265-1.214,0.853c-0.151,0.488-0.007,0.962,0.323,1.177C19.896,53.846,20.438,53.449,20.625,52.848"/>
	</g>
</g>
<g>
</g>
</svg>
