<?xml version="1.0" encoding="utf-8"?>
<!-- Generator: Adobe Illustrator 17.0.0, SVG Export Plug-In . SVG Version: 6.00 Build 0)  -->
<!DOCTYPE svg PUBLIC "-//W3C//DTD SVG 1.1 Tiny//EN" "http://www.w3.org/Graphics/SVG/1.1/DTD/svg11-tiny.dtd">
<svg version="1.1" baseProfile="tiny" id="Calque_1"
	 xmlns="http://www.w3.org/2000/svg" xmlns:xlink="http://www.w3.org/1999/xlink" x="0px" y="0px" width="65.2px" height="65.2px"
	 viewBox="0 0 65.2 65.2" xml:space="preserve">
<path fill="#FAD200" d="M7.185,29.82c0,0,12.778-1.262-1.336-8.653c0-0.045,15.227,5.076,6.411-5.655c0,0,10.374,9.247,5.744-6.396
	c1.425,2.345,7.257,12.763,8.682,0.341c0.846,3.384,1.736,12.052,8.682-0.341c-0.801,4.615-3.428,13.876,5.922,6.218
	c-1.647,2.315-8.059,10.33,6.233,5.788c-3.606,2.36-12.155,7.005-1.425,8.578c-2.226,0.594-11.309,2.063,1.425,8.741
	c-5.031-0.801-13.446-3.384-6.456,5.61c-2.894-1.736-9.395-7.494-5.699,6.471c-2.538-3.666-6.782-12.081-8.511-0.282
	c-0.438-1.603-1.863-12.748-8.898,0.282c0.668-3.622,4.185-13.773-5.699-6.516c1.158-1.781,8.148-9.395-6.411-5.565
	C7.185,37.641,19.206,31.571,7.185,29.82z"/>
</svg>
