<?xml version="1.0" encoding="utf-8"?>
<!-- Generator: Adobe Illustrator 17.0.0, SVG Export Plug-In . SVG Version: 6.00 Build 0)  -->
<!DOCTYPE svg PUBLIC "-//W3C//DTD SVG 1.1 Tiny//EN" "http://www.w3.org/Graphics/SVG/1.1/DTD/svg11-tiny.dtd">
<svg version="1.1" baseProfile="tiny" id="Calque_1"
	 xmlns="http://www.w3.org/2000/svg" xmlns:xlink="http://www.w3.org/1999/xlink" x="0px" y="0px" width="65.2px" height="65.2px"
	 viewBox="0 0 65.2 65.2" xml:space="preserve">
<g id="WARNING">
	<g>
		<polygon fill="#FFFFFF" points="11.085,51.243 32.601,13.957 54.115,51.243 		"/>
	</g>
	<g>
		<path fill="#E5241D" d="M54.115,52.743H11.084c-0.536,0-1.031-0.286-1.299-0.75s-0.268-1.035,0-1.5l21.517-37.286
			c0.268-0.464,0.763-0.75,1.299-0.75l0,0c0.536,0,1.031,0.286,1.299,0.75l21.513,37.286c0.269,0.465,0.269,1.036,0,1.5
			C55.146,52.457,54.651,52.743,54.115,52.743z M13.682,49.743h37.835L32.602,16.958L13.682,49.743z"/>
	</g>
	<g>
		<path d="M34.129,43.595h-3.058v2.976h3.058V43.595z M34.293,27.133h-3.385l0.6,13.65h2.184L34.293,27.133z"/>
	</g>
</g>
</svg>
