<?xml version="1.0" encoding="utf-8"?>
<!-- Generator: Adobe Illustrator 17.0.0, SVG Export Plug-In . SVG Version: 6.00 Build 0)  -->
<!DOCTYPE svg PUBLIC "-//W3C//DTD SVG 1.1 Tiny//EN" "http://www.w3.org/Graphics/SVG/1.1/DTD/svg11-tiny.dtd">
<svg version="1.1" baseProfile="tiny" id="Calque_1"
	 xmlns="http://www.w3.org/2000/svg" xmlns:xlink="http://www.w3.org/1999/xlink" x="0px" y="0px" width="65.2px" height="65.2px"
	 viewBox="0 0 65.2 65.2" xml:space="preserve">
<g>
	<path fill="#FAD200" d="M7.185,29.82c0,0,12.778-1.262-1.336-8.653c0-0.045,15.227,5.076,6.411-5.655c0,0,10.374,9.247,5.744-6.396
		c1.425,2.345,7.257,12.763,8.682,0.341c0.846,3.384,1.736,12.052,8.682-0.341c-0.801,4.615-3.428,13.876,5.922,6.218
		c-1.647,2.315-8.059,10.33,6.233,5.788c-3.606,2.36-12.155,7.005-1.425,8.578c-2.226,0.594-11.309,2.063,1.425,8.741
		c-5.031-0.801-13.446-3.384-6.456,5.61c-2.894-1.736-9.395-7.494-5.699,6.471c-2.538-3.666-6.782-12.081-8.511-0.282
		c-0.438-1.603-1.863-12.748-8.898,0.282c0.668-3.622,4.185-13.773-5.699-6.516c1.158-1.781,8.148-9.395-6.411-5.565
		C7.185,37.641,19.206,31.571,7.185,29.82z"/>
	<g id="ENSEMBLE">
		<g id="GRIS" display="none">
			<path display="inline" fill="#737176" d="M57.192,16.46c0,0,0-10.161-11.561-10.161c-11.622,0-10.587,10.161-10.587,10.161
				s-8.762,0-8.762,7.727c0,7.728,7.728,7.728,7.728,7.728h23.182c0,0,7.727,0,7.727-7.728C64.919,16.46,57.192,16.46,57.192,16.46
				s-6.857-0.788-7.727,3.901"/>
			<path display="inline" fill="#272824" d="M35.044,16.46c-1.515,0.146-2.993,0.562-4.33,1.206
				c-1.321,0.672-2.462,1.672-3.108,2.939c-0.655,1.26-0.812,2.731-0.69,4.144c0.049,0.799,0.211,1.414,0.438,2.065
				c0.247,0.643,0.552,1.262,0.998,1.769c0.841,1.06,2.084,1.744,3.42,2.122c0.67,0.176,1.373,0.305,2.049,0.337l2.233-0.022
				c3.043-0.051,6.085-0.077,9.128-0.082c3.043-0.02,6.085-0.027,9.128-0.003l2.282,0.01l0.571,0.003
				c0.168-0.001,0.297-0.011,0.478-0.028c0.338-0.029,0.68-0.086,1.017-0.154c1.347-0.282,2.634-0.837,3.574-1.754
				c0.958-0.894,1.558-2.133,1.755-3.505c0.202-1.349,0.142-2.895-0.277-4.124c-0.44-1.283-1.282-2.426-2.485-3.157
				c-1.17-0.756-2.631-1.18-4.032-1.31l-0.052-0.003c-0.733-0.103-1.525-0.127-2.289-0.086c-0.386,0.018-0.766,0.068-1.148,0.123
				c-0.376,0.074-0.753,0.152-1.116,0.276c-0.362,0.119-0.723,0.26-1.049,0.456c-0.159,0.104-0.341,0.18-0.483,0.307l-0.446,0.362
				l-0.381,0.434c-0.144,0.136-0.209,0.324-0.317,0.487c-0.103,0.167-0.201,0.338-0.252,0.529l-0.195,0.562l0.128-0.583
				c0.03-0.201,0.108-0.385,0.193-0.569c0.09-0.179,0.139-0.386,0.27-0.544l0.349-0.506l0.436-0.435
				c0.143-0.15,0.326-0.248,0.489-0.375c0.333-0.242,0.706-0.426,1.082-0.588c0.377-0.167,0.769-0.284,1.164-0.398
				c0.398-0.093,0.798-0.182,1.203-0.236c0.814-0.113,1.616-0.163,2.463-0.119l-0.052-0.003c1.633-0.004,3.202,0.383,4.656,1.168
				c1.467,0.753,2.643,2.135,3.24,3.698c0.611,1.637,0.712,3.209,0.559,4.872c-0.178,1.646-0.908,3.334-2.149,4.556
				c-1.224,1.245-2.824,1.986-4.44,2.344c-0.407,0.087-0.816,0.158-1.236,0.198c-0.197,0.021-0.448,0.04-0.661,0.042l-0.571,0.003
				l-2.282,0.01c-3.043,0.024-6.085,0.018-9.128-0.003c-3.043-0.005-6.085-0.031-9.128-0.082c-0.782-0.015-1.473-0.009-2.331-0.043
				c-0.843-0.065-1.642-0.229-2.431-0.481c-0.785-0.259-1.541-0.623-2.249-1.075c-0.681-0.49-1.345-1.038-1.831-1.738
				c-0.273-0.327-0.472-0.7-0.664-1.075c-0.223-0.362-0.32-0.772-0.461-1.163c-0.233-0.791-0.368-1.687-0.361-2.408
				c-0.036-1.603,0.23-3.274,1.125-4.658c0.87-1.387,2.231-2.359,3.669-2.939C31.972,16.662,33.521,16.425,35.044,16.46z"/>
			<path display="inline" fill="#272824" d="M57.192,16.46c0,0-0.019-0.143-0.068-0.402c-0.049-0.261-0.15-0.637-0.276-1.108
				c-0.136-0.47-0.339-1.025-0.596-1.64c-0.283-0.605-0.627-1.269-1.092-1.919c-0.236-0.322-0.474-0.66-0.785-0.954
				c-0.145-0.154-0.292-0.31-0.441-0.469c-0.167-0.139-0.337-0.279-0.509-0.422c-0.679-0.577-1.519-1.008-2.404-1.39
				c-0.438-0.201-0.94-0.288-1.412-0.444c-0.481-0.138-1.006-0.163-1.509-0.271c-0.501-0.122-1.046-0.073-1.571-0.119L45.79,7.291
				l-0.844,0.056c-0.556,0.035-1.157,0.024-1.621,0.143c-0.491,0.11-0.997,0.119-1.471,0.313c-0.473,0.171-0.98,0.268-1.404,0.507
				L39.788,8.62c-0.212,0.113-0.396,0.264-0.595,0.392c-0.797,0.515-1.415,1.204-1.948,1.908c-0.481,0.74-0.882,1.502-1.136,2.264
				c-0.252,0.759-0.436,1.489-0.525,2.15c-0.087,0.66-0.148,1.245-0.087,1.707c0.055,0.469,0.183,0.825,0.301,1.059
				c0.147,0.218,0.225,0.335,0.225,0.335s-0.109-0.094-0.313-0.271c-0.176-0.203-0.435-0.534-0.6-1.032
				c-0.181-0.498-0.263-1.125-0.29-1.836c-0.037-0.714,0.01-1.527,0.179-2.405c0.156-0.882,0.478-1.821,0.975-2.754
				c0.534-0.902,1.214-1.847,2.166-2.537c0.234-0.174,0.459-0.374,0.71-0.53c0.259-0.143,0.519-0.287,0.781-0.432
				c0.514-0.329,1.095-0.479,1.666-0.684c1.143-0.351,2.463-0.57,3.533-0.602l0.845-0.039c0.406,0.001,0.625,0.033,0.945,0.048
				c0.592,0.061,1.182,0.028,1.766,0.173c0.582,0.122,1.166,0.192,1.721,0.39c0.55,0.213,1.112,0.358,1.622,0.625
				c1.034,0.499,1.966,1.139,2.696,1.895c0.183,0.188,0.363,0.373,0.54,0.556c0.161,0.196,0.305,0.401,0.448,0.601
				c0.302,0.387,0.519,0.807,0.729,1.203c0.423,0.793,0.657,1.578,0.834,2.267c0.162,0.695,0.23,1.309,0.263,1.813
				C57.291,15.894,57.192,16.46,57.192,16.46z"/>
		</g>
		<g id="BLANC_ORAGE" display="none">
			<path display="inline" fill="#FFFFFF" d="M45.769,43.745c0,0-5.417,0-5.417,0.001c0,0-4.923-0.515-3.635-4.153
				c1.289-3.638,4.956-4.031,6.509-3.638c0,0,1.124,0.491,1.586,2.212c0.462,1.721-0.926-2.457-1.058-3.932
				c-0.132-1.474-1.619-7.226,0.628-11.157c2.246-3.932,6.64-6.193,9.647-3.539c3.006,2.654,3.171,8.258,3.304,9.093"/>
			<path display="inline" fill="#8E8B92" d="M45.769,43.745c-1.694,0.112-3.405,0.207-5.138,0.28l-0.32,0.113
				c-0.666-0.051-1.284-0.179-1.916-0.394c-0.623-0.217-1.249-0.546-1.762-1.093c-0.252-0.272-0.471-0.603-0.602-0.973
				c-0.088-0.18-0.11-0.372-0.145-0.564c-0.044-0.195-0.053-0.384-0.038-0.57c-0.01-0.388,0.084-0.731,0.166-1.084
				c0.129-0.409,0.195-0.589,0.351-0.932c0.161-0.329,0.333-0.652,0.537-0.929c0.185-0.297,0.432-0.553,0.67-0.812
				c0.251-0.25,0.518-0.48,0.809-0.683c0.29-0.199,0.592-0.388,0.912-0.533c0.633-0.307,1.311-0.509,2.004-0.602
				c0.698-0.091,1.395-0.103,2.164,0.062l0.08,0.017l0.069,0.034c0.379,0.186,0.559,0.33,0.784,0.527
				c0.214,0.185,0.398,0.392,0.562,0.609c0.329,0.434,0.572,0.915,0.732,1.403c0.04,0.118,0.094,0.253,0.121,0.359
				c0.03,0.114,0.058,0.183,0.103,0.427l0.008,0.071c0.007,0.087,0.003,0.18-0.013,0.27c-0.017,0.093-0.04,0.172-0.08,0.26
				c0.188,0.778-2.289,0.451-1.784,0.112c-0.035-0.054-0.088-0.16-0.095-0.179l-0.05-0.119l-0.066-0.177l-0.109-0.321
				c-0.139-0.42-0.265-0.834-0.388-1.253c-0.238-0.854-0.476-1.645-0.615-2.653c-0.094-0.778-0.268-1.613-0.386-2.49
				c-0.221-1.738-0.336-3.531-0.096-5.351c0.113-0.906,0.31-1.824,0.67-2.704c0.165-0.459,0.383-0.835,0.639-1.319
				c0.237-0.358,0.439-0.702,0.752-1.098c0.576-0.762,1.197-1.421,1.932-2.006c0.724-0.584,1.542-1.066,2.435-1.405
				c0.89-0.337,1.886-0.496,2.873-0.377c0.99,0.109,1.93,0.561,2.652,1.185c0.103,0.088,0.161,0.127,0.299,0.257l0.215,0.235
				c0.143,0.159,0.287,0.301,0.431,0.509c0.306,0.385,0.533,0.776,0.754,1.168c0.405,0.805,0.695,1.643,0.912,2.488
				c0.221,0.845,0.344,1.704,0.427,2.559c0.09,0.855,0.079,1.713,0.104,2.563c-0.31-1.678-0.646-3.346-1.253-4.894
				c-0.297-0.773-0.658-1.514-1.098-2.184c-0.233-0.326-0.463-0.652-0.714-0.912c-0.105-0.138-0.276-0.283-0.432-0.426l-0.236-0.215
				c-0.023-0.008-0.139-0.091-0.204-0.134c-1.208-0.877-2.752-0.904-4.109-0.273c-0.681,0.306-1.307,0.753-1.888,1.253
				c-0.58,0.493-1.106,1.107-1.529,1.716c-0.211,0.275-0.431,0.671-0.647,1.031c-0.116,0.278-0.322,0.644-0.423,0.994
				c-0.258,0.704-0.428,1.459-0.509,2.24c-0.19,1.557-0.064,3.186,0.152,4.812c0.097,0.809,0.261,1.642,0.36,2.552
				c0.08,0.679,0.302,1.531,0.515,2.313l0.35,1.186l0.092,0.283l0.042,0.123l0.009,0.029c0.003,0.006-0.036-0.077-0.06-0.107
				c0.51-0.334-1.961-0.658-1.768,0.124c-0.039,0.081-0.063,0.154-0.08,0.24c-0.016,0.084-0.02,0.17-0.013,0.25l0.005,0.052
				c0.007,0.035-0.019-0.101-0.044-0.193c-0.022-0.1-0.051-0.163-0.075-0.247c-0.088-0.323-0.227-0.615-0.399-0.866
				c-0.086-0.124-0.182-0.244-0.285-0.339c-0.082-0.096-0.253-0.201-0.25-0.21l0.148,0.051c-0.423-0.11-0.965-0.14-1.478-0.089
				c-0.259,0.026-0.518,0.069-0.771,0.132c-0.253,0.06-0.506,0.131-0.743,0.234c-0.244,0.09-0.47,0.215-0.693,0.345
				c-0.221,0.133-0.426,0.288-0.622,0.457c-0.183,0.179-0.382,0.351-0.532,0.566c-0.175,0.205-0.299,0.416-0.427,0.626
				c-0.119,0.2-0.285,0.59-0.355,0.756c-0.074,0.237-0.172,0.479-0.179,0.708c-0.025,0.119-0.032,0.233-0.012,0.34
				c0.01,0.11,0.002,0.227,0.049,0.326c0.05,0.213,0.155,0.415,0.299,0.604c0.288,0.381,0.745,0.69,1.245,0.936
				c0.5,0.241,1.073,0.429,1.618,0.534l-0.32,0.113C41.951,43.539,43.852,43.634,45.769,43.745z"/>
			<path display="inline" fill="#FFFFFF" d="M54.625,32.614c1.268-5.652,10.676-8.032,10.676,2.38c0,8.484-6.319,8.876-6.727,8.776"
				/>
			<path display="inline" fill="#8E8B92" d="M54.625,32.614c0,0,0.017-0.118,0.049-0.34c0.054-0.219,0.031-0.555,0.189-0.955
				c0.142-0.408,0.322-0.934,0.673-1.434c0.147-0.276,0.356-0.527,0.588-0.788c0.117-0.131,0.237-0.266,0.36-0.403
				c0.143-0.117,0.289-0.237,0.438-0.36c0.585-0.514,1.356-0.922,2.246-1.192c0.889-0.225,1.951-0.362,2.989,0.012
				c0.541,0.115,0.998,0.446,1.488,0.729c0.221,0.168,0.413,0.372,0.621,0.564c0.207,0.195,0.404,0.399,0.537,0.639
				c0.299,0.462,0.619,0.929,0.777,1.437l0.291,0.753c0.09,0.252,0.12,0.507,0.182,0.762c0.249,1.05,0.232,1.989,0.273,3.076
				c-0.024,0.464-0.059,0.924-0.102,1.378c-0.078,0.492-0.178,0.994-0.27,1.474c-0.141,0.465-0.265,0.923-0.436,1.355
				c-0.216,0.421-0.373,0.85-0.627,1.224c-0.456,0.772-1.038,1.412-1.647,1.893c-0.604,0.488-1.233,0.821-1.813,1.025
				c-0.568,0.233-1.101,0.305-1.524,0.363c-0.859,0.092-1.334-0.053-1.334-0.053s0.12-0.001,0.335-0.055
				c0.215-0.048,0.522-0.158,0.897-0.304c0.37-0.164,0.811-0.369,1.259-0.681c0.456-0.297,0.911-0.703,1.337-1.185
				c0.204-0.251,0.418-0.505,0.582-0.812c0.196-0.28,0.344-0.607,0.498-0.936c0.166-0.321,0.243-0.704,0.376-1.059
				c0.084-0.378,0.169-0.764,0.256-1.156c0.041-0.391,0.083-0.789,0.126-1.192c-0.001-0.456,0.009-0.917,0.029-1.381
				c-0.068-0.765-0.073-1.729-0.298-2.516c-0.044-0.204-0.059-0.425-0.125-0.617l-0.207-0.569c-0.105-0.406-0.33-0.71-0.519-1.038
				c-0.081-0.18-0.214-0.301-0.337-0.429c-0.122-0.128-0.229-0.279-0.357-0.397c-0.294-0.174-0.544-0.437-0.883-0.519
				c-0.622-0.287-1.346-0.306-2.03-0.233c-0.338,0.079-0.685,0.113-0.995,0.255c-0.324,0.104-0.635,0.222-0.908,0.396
				c-0.143,0.078-0.282,0.154-0.419,0.228c-0.124,0.094-0.246,0.186-0.364,0.275c-0.247,0.173-0.48,0.344-0.656,0.549
				c-0.407,0.375-0.677,0.749-0.912,1.077c-0.243,0.323-0.358,0.65-0.474,0.838C54.68,32.508,54.625,32.614,54.625,32.614z"/>
		</g>
		<g id="BLANC" display="none">
			<path display="inline" fill="#FFFFFF" d="M43.485,23.026c0,0,0-10.161-11.561-10.161c-11.622,0-10.587,10.161-10.587,10.161
				s-8.762,0-8.762,7.727c0,7.728,7.728,7.728,7.728,7.728h23.182c0,0,7.727,0,7.727-7.728
				C51.212,23.026,43.485,23.026,43.485,23.026s-6.857-0.788-7.727,3.901"/>
			<path display="inline" fill="#272824" d="M21.337,23.026c-1.515,0.146-2.993,0.562-4.33,1.206
				c-1.321,0.672-2.462,1.672-3.108,2.939c-0.655,1.26-0.812,2.731-0.69,4.144c0.049,0.799,0.211,1.414,0.438,2.065
				c0.247,0.643,0.552,1.262,0.998,1.769c0.841,1.06,2.084,1.744,3.42,2.122c0.67,0.176,1.373,0.305,2.049,0.337l2.233-0.022
				c3.043-0.051,6.085-0.077,9.128-0.082c3.043-0.02,6.085-0.027,9.128-0.003l2.282,0.01l0.571,0.003
				c0.168-0.001,0.297-0.011,0.478-0.028c0.338-0.029,0.68-0.086,1.017-0.154c1.347-0.282,2.634-0.837,3.574-1.754
				c0.958-0.894,1.558-2.133,1.755-3.505c0.202-1.349,0.142-2.895-0.277-4.124c-0.44-1.283-1.282-2.426-2.485-3.157
				c-1.17-0.756-2.631-1.18-4.032-1.31l-0.052-0.003c-0.733-0.103-1.525-0.127-2.289-0.086c-0.386,0.018-0.766,0.068-1.148,0.123
				c-0.376,0.074-0.753,0.152-1.116,0.276c-0.362,0.119-0.723,0.26-1.049,0.456c-0.159,0.104-0.341,0.18-0.483,0.307l-0.446,0.362
				l-0.381,0.434c-0.144,0.136-0.209,0.324-0.317,0.487c-0.103,0.167-0.201,0.338-0.252,0.529l-0.195,0.562l0.128-0.583
				c0.03-0.201,0.108-0.385,0.193-0.569c0.09-0.179,0.139-0.386,0.27-0.544l0.349-0.506l0.436-0.435
				c0.143-0.15,0.326-0.248,0.489-0.375c0.333-0.242,0.706-0.426,1.082-0.588c0.377-0.167,0.769-0.284,1.164-0.398
				c0.398-0.093,0.798-0.182,1.203-0.236c0.814-0.113,1.616-0.163,2.463-0.119l-0.052-0.003c1.633-0.004,3.202,0.383,4.656,1.168
				c1.467,0.753,2.643,2.135,3.24,3.698c0.611,1.637,0.712,3.209,0.559,4.872c-0.178,1.646-0.908,3.334-2.149,4.556
				c-1.224,1.245-2.824,1.986-4.44,2.344c-0.407,0.087-0.816,0.158-1.236,0.198c-0.197,0.021-0.448,0.04-0.661,0.042l-0.571,0.003
				l-2.282,0.01c-3.043,0.024-6.085,0.018-9.128-0.003c-3.043-0.005-6.085-0.032-9.128-0.082c-0.782-0.015-1.473-0.009-2.331-0.043
				c-0.843-0.065-1.642-0.229-2.431-0.481c-0.785-0.259-1.541-0.623-2.249-1.075c-0.681-0.49-1.345-1.038-1.831-1.738
				c-0.273-0.327-0.472-0.7-0.664-1.075c-0.223-0.362-0.32-0.772-0.461-1.163c-0.233-0.791-0.368-1.687-0.361-2.408
				c-0.036-1.603,0.23-3.274,1.125-4.658c0.87-1.387,2.231-2.359,3.669-2.939C18.265,23.228,19.814,22.991,21.337,23.026z"/>
			<path display="inline" fill="#272824" d="M43.497,23.026c0,0-0.021-0.143-0.074-0.402c-0.053-0.26-0.16-0.636-0.294-1.106
				c-0.144-0.469-0.355-1.022-0.622-1.635c-0.292-0.603-0.646-1.264-1.119-1.912c-0.242-0.32-0.482-0.659-0.796-0.95
				c-0.146-0.154-0.294-0.31-0.445-0.468c-0.169-0.138-0.34-0.278-0.514-0.42c-0.684-0.577-1.528-1.01-2.417-1.392
				c-0.436-0.211-0.942-0.291-1.415-0.448c-0.478-0.149-1.008-0.166-1.512-0.276c-0.503-0.12-1.047-0.083-1.574-0.124l-0.74-0.037
				l-0.846,0.056c-1.186,0.023-2.124,0.188-3.105,0.448c-0.472,0.175-0.985,0.264-1.409,0.505l-0.663,0.31
				c-0.218,0.106-0.398,0.263-0.599,0.39c-0.802,0.511-1.42,1.205-1.958,1.906c-0.48,0.743-0.888,1.503-1.141,2.268
				c-0.254,0.76-0.438,1.492-0.528,2.154c-0.087,0.661-0.149,1.248-0.088,1.712c0.055,0.47,0.183,0.827,0.301,1.062
				c0.147,0.219,0.226,0.335,0.226,0.335s-0.109-0.095-0.314-0.272c-0.176-0.204-0.436-0.536-0.6-1.035
				c-0.181-0.5-0.262-1.128-0.289-1.84c-0.036-0.716,0.011-1.53,0.183-2.41c0.154-0.885,0.484-1.824,0.982-2.759
				c0.541-0.901,1.221-1.849,2.179-2.535c0.236-0.173,0.458-0.378,0.714-0.527c0.259-0.143,0.521-0.288,0.783-0.433
				c0.515-0.33,1.1-0.471,1.671-0.68c1.153-0.346,2.465-0.561,3.54-0.593l0.847-0.039c0.412,0.011,0.627,0.036,0.949,0.053
				c0.594,0.056,1.185,0.035,1.769,0.179c1.175,0.174,2.306,0.547,3.347,1.025c1.036,0.497,1.968,1.138,2.702,1.892
				c0.184,0.187,0.365,0.371,0.544,0.552c0.159,0.199,0.308,0.4,0.452,0.599c0.306,0.384,0.525,0.804,0.741,1.197
				c0.431,0.789,0.677,1.572,0.864,2.26c0.172,0.694,0.25,1.308,0.291,1.812C43.586,22.457,43.497,23.026,43.497,23.026z"/>
		</g>
		<g id="NUAGE_SOLEIL" display="none">
			<path display="inline" fill="#FFFFFF" d="M36.609,20.6l4.28-3.373l4.196,0.219l2.579,1.113l6.69-1.75c0,0,2.65,0.191,2.813,0.219
				c0.163,0.029,3.547,1.375,3.547,1.375l1.13,1.29l-0.063,2.069l-0.893,1.106l-2.282,0.673l-3.281,0.177l-4.429-0.057l-6.322-0.155
				c0,0-3.373-0.249-3.529-0.249c-0.156,0-3.387-0.283-3.387-0.283L36.51,22.62L36.609,20.6z"/>
			<path display="inline" fill="#8E8B92" d="M47.932,18.339c-0.491-0.131-0.997-0.226-1.481-0.298
				c-0.493-0.067-0.988-0.1-1.479-0.116c-0.491-0.012-0.981-0.004-1.466,0.047c-0.484,0.035-0.966,0.097-1.436,0.195
				c-0.472,0.086-0.932,0.22-1.378,0.364c-0.447,0.143-0.88,0.318-1.278,0.533c-0.4,0.21-0.778,0.454-1.085,0.739
				c-0.174,0.127-0.298,0.287-0.437,0.434c-0.143,0.145-0.218,0.323-0.337,0.475l0.067-0.138c-0.104,0.385-0.207,0.787-0.133,1.04
				c0.063,0.253,0.155,0.411,0.406,0.589c0.246,0.173,0.633,0.3,1.036,0.368c0.193,0.037,0.433,0.057,0.591,0.06l0.751-0.008
				c2.033,0.025,4.067,0.016,6.1,0.098c2.033,0.054,4.067,0.157,6.1,0.298c2.033,0.134,4.067,0.324,6.1,0.602
				c-2.033,0.279-4.067,0.468-6.1,0.602c-2.033,0.142-4.067,0.244-6.1,0.298c-2.033,0.082-4.067,0.073-6.1,0.098l-0.774-0.008
				c-0.351-0.014-0.618-0.049-0.923-0.108c-0.59-0.12-1.2-0.301-1.789-0.717c-0.59-0.394-1.1-1.155-1.164-1.916
				c-0.096-0.769,0.133-1.37,0.33-1.944l0.032-0.092l0.036-0.046c0.191-0.244,0.36-0.518,0.58-0.724
				c0.217-0.211,0.429-0.43,0.672-0.591c0.232-0.184,0.479-0.334,0.733-0.462c0.247-0.146,0.506-0.253,0.763-0.357
				c0.514-0.212,1.041-0.363,1.568-0.474c0.527-0.115,1.061-0.173,1.591-0.199c0.529-0.031,1.058-0.032,1.581,0.016
				c0.523,0.04,1.041,0.125,1.55,0.231c0.511,0.101,1.005,0.267,1.492,0.439C47.042,17.853,47.487,18.091,47.932,18.339z"/>
			<path display="inline" fill="#8E8B92" d="M58.719,23.624c0,0,0.094-0.023,0.271-0.067c0.182-0.037,0.424-0.129,0.723-0.247
				c0.302-0.112,0.64-0.316,0.976-0.562c0.331-0.255,0.635-0.61,0.778-1.01c0.138-0.404,0.101-0.834-0.093-1.296
				c-0.211-0.469-0.567-0.921-1.029-1.337c-0.378-0.328-0.97-0.64-1.565-0.849c-0.613-0.209-1.287-0.348-1.979-0.422
				c-0.691-0.084-1.403-0.101-2.104-0.087c-0.713,0.027-1.368,0.061-2.069,0.172c-0.713,0.109-1.36,0.179-1.984,0.296
				c-0.315,0.045-0.608,0.12-0.894,0.184c-0.291,0.056-0.571,0.116-0.825,0.203c-0.53,0.141-0.984,0.329-1.399,0.498
				c-0.401,0.185-0.725,0.399-1.023,0.551c-0.497,0.403-0.82,0.65-0.82,0.65s0.172-0.333,0.546-0.938
				c0.236-0.245,0.503-0.597,0.884-0.907c0.384-0.303,0.832-0.651,1.374-0.915c0.528-0.299,1.132-0.556,1.778-0.77
				c0.639-0.226,1.347-0.429,2.037-0.583c0.7-0.168,1.51-0.332,2.295-0.379c0.795-0.063,1.612-0.05,2.434,0.038
				c0.82,0.101,1.648,0.274,2.439,0.598c0.804,0.328,1.507,0.781,2.151,1.451c0.551,0.582,0.969,1.319,1.171,2.092
				c0.224,0.78,0.093,1.677-0.311,2.281c-0.389,0.62-0.942,0.948-1.414,1.141c-0.479,0.193-0.911,0.271-1.263,0.285
				c-0.35,0.028-0.632-0.004-0.806-0.031C58.815,23.638,58.719,23.624,58.719,23.624z"/>
		</g>
		<rect id="BARRE_ORAGE" x="20.303" y="36.898" display="none" fill="#FFFFFF" width="22.969" height="2.454"/>
		<rect id="BARRE_NIEGE" x="22.679" y="37.066" display="none" fill="#FFFFFF" width="12.505" height="2.454"/>
		<rect id="BARRE_2_GOUTTES_2_" x="22.679" y="37.066" display="none" fill="#FFFFFF" width="20.592" height="2.454"/>
		<rect id="BARRE_1_GOUTTE" x="22.679" y="36.898" display="none" fill="#FFFFFF" width="9.479" height="2.454"/>
		<polygon id="ECLAIR_1_" display="none" fill="#EA5813" stroke="#FFFFFF" stroke-width="0.5" points="13.115,50.261 22.394,41.9 
			20.158,37.237 38.906,28.332 26.879,38.617 29.199,42.899 		"/>
		<path id="NEIGE" display="none" fill="#FFFFFF" stroke="#38286D" d="M19.047,39.208l0.086-0.243
			c0.668-1.885,2.553-1.218,2.553-1.218l1.806,0.64l-0.479-1.855c0,0-0.501-1.937,1.435-2.437l0.25-0.065
			c0,0,1.936-0.501,2.437,1.435l0.621,2.401l1.872-1.627c1.509-1.312,2.821,0.198,2.821,0.198l0.17,0.195
			c1.312,1.509-0.198,2.821-0.198,2.821l-1.713,1.489l2.14,0.758c1.885,0.668,1.218,2.553,1.218,2.553l-0.087,0.243
			c-0.667,1.885-2.552,1.218-2.552,1.218l-1.807-0.64l0.48,1.855c0,0,0.501,1.937-1.436,2.437l-0.25,0.065
			c0,0-1.936,0.501-2.437-1.435l-0.621-2.401l-1.871,1.627c-1.51,1.312-2.822-0.198-2.822-0.198l-0.169-0.195
			c-1.312-1.509,0.197-2.821,0.197-2.821l1.713-1.489l-2.139-0.758C18.379,41.093,19.047,39.208,19.047,39.208z"/>
		<g id="NEIGE__x2B__GOUTTE_1">
			<path display="none" fill="#FFFFFF" d="M34.047,32.208l0.086-0.243c0.668-1.885,2.553-1.218,2.553-1.218l1.806,0.64l-0.479-1.855
				c0,0-0.501-1.937,1.435-2.437l0.25-0.065c0,0,1.936-0.501,2.437,1.435l0.621,2.401l1.872-1.627
				c1.509-1.312,2.821,0.198,2.821,0.198l0.17,0.195c1.312,1.509-0.198,2.821-0.198,2.821l-1.713,1.489l2.14,0.758
				c1.885,0.668,1.218,2.553,1.218,2.553l-0.087,0.243c-0.667,1.885-2.552,1.218-2.552,1.218l-1.807-0.64l0.48,1.855
				c0,0,0.501,1.937-1.436,2.437l-0.25,0.065c0,0-1.936,0.501-2.437-1.435l-0.621-2.401l-1.871,1.627
				c-1.51,1.312-2.822-0.198-2.822-0.198l-0.169-0.195c-1.312-1.509,0.197-2.821,0.197-2.821l1.713-1.489l-2.139-0.758
				C33.379,34.093,34.047,32.208,34.047,32.208z"/>
			<path fill="#38286D" d="M42.872,42.989c-1.204,0-2.071-0.681-2.379-1.868l-0.418-1.619l-1.262,1.097
				c-0.503,0.438-1.046,0.659-1.614,0.659c-1.113,0-1.882-0.869-1.914-0.906l-0.168-0.194c-1.297-1.493-0.406-2.96,0.246-3.526
				l1.066-0.928l-1.331-0.471c-0.948-0.336-1.532-1.024-1.646-1.938c-0.081-0.653,0.103-1.195,0.124-1.254l0.086-0.243
				c0.38-1.074,1.188-1.666,2.274-1.666c0.498,0,0.875,0.129,0.917,0.144l0.92,0.326l-0.244-0.945
				c-0.016-0.061-0.15-0.617-0.013-1.26c0.191-0.9,0.833-1.535,1.807-1.786l0.249-0.065c0.03-0.008,0.298-0.074,0.668-0.074
				c1.205,0,2.072,0.681,2.38,1.868l0.418,1.619l1.262-1.097c0.503-0.437,1.046-0.659,1.614-0.659c1.113,0,1.881,0.869,1.913,0.906
				l0.169,0.195c0.66,0.759,0.83,1.645,0.479,2.496c-0.252,0.608-0.678,0.989-0.726,1.031l-1.065,0.926l1.332,0.471
				c1.863,0.662,1.811,2.377,1.522,3.192l-0.088,0.244c-0.38,1.073-1.187,1.664-2.272,1.664c-0.498,0-0.875-0.128-0.917-0.143
				l-0.921-0.327l0.245,0.945c0.016,0.061,0.15,0.617,0.013,1.261c-0.192,0.899-0.835,1.533-1.809,1.785l-0.248,0.064
				C43.51,42.922,43.242,42.989,42.872,42.989z M40.638,37.688l0.824,3.184c0.194,0.752,0.656,1.118,1.41,1.118
				c0.242,0,0.418-0.043,0.419-0.043l0.246-0.064c0.615-0.159,0.969-0.495,1.083-1.027c0.088-0.412-0.003-0.797-0.004-0.801
				L43.9,37.288l2.694,0.954l0,0c0,0,0.256,0.086,0.583,0.086c0.657,0,1.093-0.326,1.33-0.999l0.088-0.244
				c0.079-0.233,0.416-1.442-0.914-1.914l-2.949-1.044l2.36-2.052c0.186-0.165,1.075-1.051,0.149-2.115l-0.17-0.195
				c-0.004-0.004-0.507-0.562-1.158-0.562c-0.32,0-0.643,0.139-0.958,0.414l-2.48,2.157l-0.824-3.184
				c-0.194-0.752-0.656-1.118-1.411-1.118c-0.242,0-0.418,0.042-0.42,0.043l-0.246,0.064c-1.366,0.353-1.136,1.587-1.076,1.831
				l0.713,2.763l-2.691-0.954l0,0c0,0-0.256-0.086-0.583-0.086c-0.657,0-1.093,0.327-1.331,1l-0.086,0.243
				c-0.081,0.235-0.418,1.443,0.913,1.915l2.946,1.045l-2.359,2.051c-0.186,0.165-1.073,1.051-0.147,2.116l0.168,0.194
				c0.004,0.004,0.508,0.562,1.159,0.562c0.32,0,0.643-0.14,0.958-0.413L40.638,37.688z"/>
		</g>
		<g id="GOUTTE_1" display="none">
			<g display="inline">
				<path fill="#38286D" d="M30.683,44.807l-0.196-10.351l-8.186,5.859l0.016,0.008c-0.676,0.408-1.257,0.963-1.646,1.689
					c-1.264,2.356-0.162,5.407,2.458,6.812c2.621,1.402,5.769,0.627,7.031-1.727c0.389-0.726,0.529-1.517,0.495-2.305L30.683,44.807
					z"/>
			</g>
			<g display="inline">
				<path fill="#0095DB" d="M20.916,43.532c-0.332,1.833,0.639,3.833,2.539,4.851c2.306,1.234,5.076,0.553,6.187-1.52
					c0.342-0.638,0.466-1.334,0.435-2.028l0.025,0.014l-0.026-1.396c0.015,0.661-0.108,1.321-0.434,1.929
					c-1.111,2.072-3.881,2.754-6.187,1.52C22.063,46.156,21.17,44.88,20.916,43.532"/>
			</g>
			<g display="inline">
				<path fill="#FFFFFF" d="M23.06,42.572c0.121-0.39,0.065-0.771-0.12-1.031c-0.065-0.041-0.136-0.073-0.215-0.091
					c-0.487-0.117-1.031,0.265-1.214,0.853c-0.151,0.488-0.007,0.962,0.323,1.177C22.331,43.57,22.873,43.173,23.06,42.572"/>
			</g>
		</g>
		<g id="GOUTTE_2" display="none">
			<g display="inline">
				<path fill="#38286D" d="M43.548,37.79l-0.196-10.351l-8.186,5.859l0.016,0.008c-0.676,0.408-1.257,0.963-1.646,1.689
					c-1.264,2.356-0.162,5.407,2.458,6.812c2.621,1.402,5.769,0.627,7.031-1.727c0.389-0.726,0.529-1.517,0.495-2.305L43.548,37.79z
					"/>
			</g>
			<g display="inline">
				<path fill="#0095DB" d="M33.781,36.515c-0.332,1.833,0.639,3.833,2.539,4.851c2.306,1.234,5.076,0.553,6.187-1.52
					c0.342-0.638,0.466-1.334,0.435-2.028l0.025,0.014l-0.026-1.396c0.015,0.661-0.108,1.321-0.434,1.929
					c-1.111,2.072-3.881,2.754-6.187,1.52C34.928,39.139,34.035,37.863,33.781,36.515"/>
			</g>
			<g display="inline">
				<path fill="#FFFFFF" d="M35.925,35.554c0.121-0.39,0.065-0.771-0.12-1.031c-0.065-0.041-0.136-0.073-0.215-0.091
					c-0.487-0.117-1.031,0.265-1.214,0.853c-0.151,0.488-0.007,0.962,0.323,1.177C35.196,36.552,35.738,36.155,35.925,35.554"/>
			</g>
		</g>
		<g id="GRIS_1_">
			<g>
				<path fill="#FFFFFF" d="M54.758,26.72c0,0,0-10.161-11.561-10.161c-11.622,0-10.587,10.161-10.587,10.161s-8.762,0-8.762,7.727
					c0,7.728,7.728,7.728,7.728,7.728h23.182c0,0,7.727,0,7.727-7.728C62.485,26.72,54.758,26.72,54.758,26.72
					s-6.857-0.788-7.727,3.901"/>
			</g>
			<g>
				<path fill="#8E8B92" d="M54.758,43.175H31.576c-3.019,0-8.728-1.824-8.728-8.728s6.386-8.727,9.762-8.727
					c0.552,0,0.998,0.447,0.999,0.998c0.001,0.552-0.446,1-0.997,1.002c-0.317,0.001-7.764,0.106-7.764,6.727
					c0,6.651,6.453,6.728,6.728,6.728h23.182c0.272-0.002,6.728-0.114,6.728-6.728c0-6.65-6.453-6.727-6.728-6.727l-0.112-0.006
					c-0.062-0.007-5.943-0.623-6.631,3.09c-0.102,0.542-0.626,0.898-1.166,0.801c-0.543-0.101-0.901-0.623-0.801-1.166
					c0.818-4.404,6.062-5.013,8.768-4.718c3.033,0.023,8.67,1.868,8.67,8.727C63.485,41.351,57.776,43.175,54.758,43.175z"/>
			</g>
			<g>
				<path fill="#8E8B92" d="M33.588,29.695c-0.237,0-0.475-0.083-0.666-0.254c-1.059-0.945-1.142-2.511-1.148-2.687
					c-0.014-0.12-0.427-4.541,2.542-7.826c2.02-2.235,5.062-3.369,9.045-3.369c3.946,0,7.052,1.123,9.23,3.337
					c3.203,3.255,3.169,7.654,3.166,7.84c-0.009,0.547-0.455,0.984-1,0.984c-0.005,0-0.011,0-0.017,0
					c-0.551-0.009-0.991-0.462-0.983-1.014c0.001-0.043,0.008-3.78-2.606-6.423c-1.789-1.808-4.41-2.725-7.79-2.725
					c-3.384,0-5.924,0.907-7.549,2.696c-2.374,2.614-2.046,6.33-2.043,6.367c0.015,0.286,0.125,1.006,0.485,1.327
					c0.412,0.368,0.448,1,0.08,1.412C34.138,29.582,33.864,29.695,33.588,29.695z"/>
			</g>
		</g>
		<g id="ECLAIR__x2B__BLANC_ORAGE_1_">
			<polygon fill="#EA5813" points="36.025,49.87 45.304,41.51 43.068,36.846 61.816,27.941 49.79,38.226 52.109,42.509 			"/>
			<path fill="#FFFFFF" d="M36.13,50.098l-0.271-0.413l9.14-8.235l-2.264-4.721l18.975-9.013l0.27,0.416L50.105,38.285l2.352,4.34
				L36.13,50.098z M43.402,36.965l2.209,4.605l-0.14,0.125l-8.067,7.269l14.357-6.571l-2.289-4.225l10.75-9.193L43.402,36.965z"/>
		</g>
		<g>
			<path d="M48.013,51.34h-1.233v-5.318h1.233V51.34z"/>
			<path d="M53.096,49.422c0,0.632-0.184,1.129-0.552,1.492s-0.885,0.545-1.551,0.545c-0.665,0-1.182-0.182-1.55-0.545
				s-0.552-0.86-0.552-1.492c0-0.635,0.186-1.135,0.556-1.496c0.37-0.363,0.886-0.544,1.546-0.544c0.67,0,1.188,0.183,1.554,0.547
				C52.913,48.293,53.096,48.791,53.096,49.422z M51.581,50.355c0.08-0.098,0.14-0.216,0.18-0.354s0.061-0.329,0.061-0.572
				c0-0.227-0.021-0.415-0.062-0.568c-0.041-0.152-0.098-0.274-0.17-0.365c-0.073-0.094-0.161-0.159-0.264-0.198
				s-0.213-0.058-0.332-0.058c-0.118,0-0.224,0.016-0.315,0.047c-0.093,0.032-0.181,0.096-0.265,0.191
				c-0.076,0.09-0.136,0.211-0.18,0.366c-0.045,0.155-0.066,0.35-0.066,0.585c0,0.209,0.019,0.391,0.058,0.545
				c0.039,0.153,0.096,0.277,0.171,0.371c0.073,0.088,0.16,0.153,0.262,0.194s0.217,0.062,0.347,0.062
				c0.111,0,0.218-0.019,0.319-0.057C51.425,50.508,51.511,50.444,51.581,50.355z"/>
			<path d="M55.977,51.442c-0.334,0-0.641-0.04-0.917-0.12c-0.277-0.079-0.519-0.202-0.724-0.369
				c-0.202-0.166-0.359-0.375-0.471-0.629c-0.112-0.252-0.168-0.549-0.168-0.889c0-0.357,0.06-0.666,0.18-0.926
				c0.119-0.26,0.286-0.475,0.5-0.646c0.208-0.161,0.447-0.279,0.719-0.355c0.271-0.074,0.552-0.112,0.844-0.112
				c0.262,0,0.504,0.028,0.725,0.085c0.221,0.058,0.428,0.132,0.619,0.223v1.049h-0.175c-0.048-0.041-0.105-0.088-0.172-0.143
				c-0.067-0.055-0.149-0.108-0.248-0.161c-0.093-0.05-0.195-0.092-0.307-0.125s-0.241-0.05-0.39-0.05
				c-0.327,0-0.579,0.104-0.756,0.313c-0.176,0.208-0.264,0.491-0.264,0.849c0,0.369,0.09,0.65,0.271,0.842
				c0.182,0.191,0.438,0.287,0.77,0.287c0.155,0,0.295-0.019,0.419-0.054c0.123-0.035,0.227-0.077,0.309-0.124
				c0.077-0.046,0.146-0.094,0.204-0.145c0.06-0.05,0.114-0.099,0.164-0.146h0.175v1.049c-0.194,0.092-0.396,0.164-0.607,0.218
				S56.232,51.442,55.977,51.442z"/>
			<path d="M59.419,51.34H58.14v-1.344h1.279V51.34z"/>
		</g>
	</g>
</g>
<g>
</g>
<g>
</g>
<g>
</g>
</svg>
