<?xml version="1.0" encoding="utf-8"?>
<!-- Generator: Adobe Illustrator 17.0.0, SVG Export Plug-In . SVG Version: 6.00 Build 0)  -->
<!DOCTYPE svg PUBLIC "-//W3C//DTD SVG 1.1 Tiny//EN" "http://www.w3.org/Graphics/SVG/1.1/DTD/svg11-tiny.dtd">
<svg version="1.1" baseProfile="tiny" id="Calque_1"
	 xmlns="http://www.w3.org/2000/svg" xmlns:xlink="http://www.w3.org/1999/xlink" x="0px" y="0px" width="65.2px" height="65.2px"
	 viewBox="0 0 65.2 65.2" xml:space="preserve">
<g id="LUNE_2_">
	<g>
		<circle fill="#706F6F" cx="23.203" cy="22.524" r="11.068"/>
		<path fill="#706F6F" d="M23.203,34.092c-6.378,0-11.568-5.189-11.568-11.567s5.189-11.568,11.568-11.568
			s11.567,5.189,11.567,11.568S29.582,34.092,23.203,34.092z M23.203,11.957c-5.827,0-10.568,4.741-10.568,10.568
			c0,5.827,4.741,10.567,10.568,10.567c5.827,0,10.567-4.741,10.567-10.567C33.771,16.697,29.03,11.957,23.203,11.957z"/>
	</g>
	<g>
		<path fill="#EDEDED" d="M20.58,18.885c0-2.759,1.026-5.271,2.708-7.197c-0.065-0.001-0.129-0.01-0.195-0.01
			c-6.051,0-10.957,4.906-10.957,10.957s4.906,10.957,10.957,10.957c3.291,0,6.235-1.458,8.243-3.754
			C25.377,29.731,20.58,24.87,20.58,18.885z"/>
		<path fill="#706F6F" d="M23.093,34.092c-6.317,0-11.457-5.14-11.457-11.457s5.14-11.457,11.457-11.457
			c0.047,0,0.093,0.003,0.139,0.006l1.001,0.072l-0.569,0.761c-1.667,1.908-2.585,4.347-2.585,6.868
			c0,5.663,4.605,10.352,10.266,10.453l1.076,0.02l-0.708,0.81C29.531,32.661,26.39,34.092,23.093,34.092z M22.228,12.222
			c-5.393,0.465-9.591,4.958-9.591,10.413c0,5.766,4.691,10.457,10.457,10.457c2.657,0,5.205-1.02,7.136-2.827
			c-5.688-0.656-10.149-5.546-10.149-11.38C20.08,16.489,20.836,14.161,22.228,12.222z"/>
	</g>
	<g>
		<polygon fill="#FFFFFF" points="8.591,25.278 9.31,29.64 13.672,30.359 9.31,31.078 8.591,35.44 7.872,31.078 3.51,30.359 
			7.872,29.64 		"/>
		<path fill="#706F6F" d="M8.591,36.979l-0.936-5.684l-5.684-0.936l5.684-0.936l0.936-5.684l0.936,5.684l5.684,0.936l-5.684,0.936
			L8.591,36.979z M5.047,30.359L8.09,30.86l0.501,3.042l0.501-3.042l3.042-0.501l-3.042-0.501l-0.501-3.042L8.09,29.858
			L5.047,30.359z"/>
	</g>
</g>
<g id="LUNE" display="none">
	<g id="LUNE_1_" display="inline">
		<path fill="#EDEDED" stroke="#706F6F" stroke-miterlimit="10" d="M17.159,11.085c0-2.297,0.855-4.39,2.255-5.994
			c-0.055-0.001-0.107-0.008-0.162-0.008c-5.04,0-9.125,4.085-9.125,9.125s4.085,9.125,9.125,9.125c2.74,0,5.192-1.214,6.865-3.127
			C21.154,20.118,17.159,16.069,17.159,11.085z"/>
		<polygon fill="#FFFFFF" stroke="#706F6F" stroke-width="0.5" stroke-miterlimit="10" points="8.485,20.183 9.14,24.156 
			13.112,24.81 9.14,25.464 8.485,29.437 7.831,25.464 3.859,24.81 7.831,24.156 		"/>
	</g>
</g>
<g id="GRIS">
	<g>
		<path fill="#737176" d="M54.758,26.67c0,0,0-10.161-11.561-10.161c-11.622,0-10.587,10.161-10.587,10.161s-8.762,0-8.762,7.727
			c0,7.728,7.728,7.728,7.728,7.728h23.182c0,0,7.727,0,7.727-7.728C62.485,26.67,54.758,26.67,54.758,26.67
			s-6.857-0.788-7.727,3.901"/>
	</g>
	<g>
		<path fill="#272824" d="M54.758,43.125H31.576c-3.019,0-8.728-1.824-8.728-8.728s6.386-8.728,9.762-8.728l0.002,2
			c-0.317,0.001-7.764,0.106-7.764,6.728c0,6.651,6.453,6.728,6.728,6.728h23.182c0.272-0.002,6.728-0.114,6.728-6.728
			c0-6.651-6.453-6.728-6.728-6.728l-0.112-0.006c-0.062-0.006-5.943-0.622-6.631,3.09l-1.967-0.365
			c0.818-4.405,6.062-5.014,8.768-4.719c3.033,0.023,8.67,1.868,8.67,8.728C63.485,41.301,57.776,43.125,54.758,43.125z"/>
	</g>
	<g>
		<path fill="#272824" d="M32.923,29.391c-1.059-0.945-1.142-2.512-1.148-2.687c-0.014-0.12-0.427-4.54,2.542-7.826
			c2.019-2.235,5.062-3.369,9.045-3.369c3.946,0,7.052,1.123,9.23,3.337c3.203,3.255,3.169,7.654,3.166,7.839l-2-0.032l1,0.016
			l-1-0.014c0.001-0.037,0.01-3.777-2.606-6.422c-1.789-1.808-4.41-2.725-7.79-2.725c-3.393,0-5.938,0.912-7.562,2.71
			c-2.378,2.633-2.034,6.312-2.031,6.349c0.015,0.289,0.126,1.01,0.486,1.331L32.923,29.391z"/>
	</g>
</g>
<g id="BLANC">
	<g>
		<path fill="#FFFFFF" d="M41.051,33.236c0,0,0-10.161-11.561-10.161c-11.622,0-10.587,10.161-10.587,10.161s-8.762,0-8.762,7.727
			c0,7.728,7.728,7.728,7.728,7.728h23.182c0,0,7.727,0,7.727-7.728C48.778,33.236,41.051,33.236,41.051,33.236
			s-6.857-0.788-7.727,3.901"/>
	</g>
	<g>
		<path fill="#272824" d="M41.052,49.691H17.869c-3.019,0-8.728-1.824-8.728-8.729c0-6.903,6.386-8.727,9.762-8.727l0.002,2
			c-0.317,0.002-7.764,0.106-7.764,6.728c0,6.614,6.456,6.727,6.731,6.729h23.18c0.272-0.002,6.727-0.114,6.727-6.729
			c0-6.613-6.454-6.726-6.729-6.728l-0.109-0.006c-0.062-0.009-5.944-0.623-6.632,3.09l-1.967-0.365
			c0.817-4.404,6.058-5.013,8.769-4.718c3.033,0.023,8.669,1.868,8.669,8.727C49.778,47.867,44.07,49.691,41.052,49.691z"/>
	</g>
	<g>
		<path fill="#272824" d="M19.064,35.957c-1.06-0.944-1.143-2.512-1.149-2.687c-0.014-0.12-0.427-4.54,2.542-7.826
			c2.02-2.235,5.063-3.369,9.045-3.369c12.417,0,12.561,11.049,12.561,11.161h-2h1l-1,0.003c-0.002-0.375-0.17-9.164-10.561-9.164
			c-3.393,0-5.937,0.912-7.562,2.71c-2.379,2.633-2.035,6.312-2.031,6.35c0.015,0.288,0.126,1.009,0.486,1.33L19.064,35.957z"/>
	</g>
</g>
<g>
</g>
<g>
</g>
<g>
</g>
</svg>
