<?xml version="1.0" encoding="utf-8"?>
<!-- Generator: Adobe Illustrator 17.0.0, SVG Export Plug-In . SVG Version: 6.00 Build 0)  -->
<!DOCTYPE svg PUBLIC "-//W3C//DTD SVG 1.1 Tiny//EN" "http://www.w3.org/Graphics/SVG/1.1/DTD/svg11-tiny.dtd">
<svg version="1.1" baseProfile="tiny" id="Calque_1"
	 xmlns="http://www.w3.org/2000/svg" xmlns:xlink="http://www.w3.org/1999/xlink" x="0px" y="0px" width="65.2px" height="65.2px"
	 viewBox="0 0 65.2 65.2" xml:space="preserve">
<g>
	<g id="LUNE_1_">
		<g>
			<circle fill="#706F6F" cx="28.787" cy="31.49" r="13.292"/>
			<path fill="#706F6F" d="M28.787,45.281c-7.604,0-13.792-6.187-13.792-13.792c0-7.604,6.187-13.792,13.792-13.792
				s13.792,6.187,13.792,13.792C42.579,39.095,36.392,45.281,28.787,45.281z M28.787,18.698c-7.053,0-12.792,5.738-12.792,12.792
				s5.738,12.792,12.792,12.792c7.054,0,12.792-5.738,12.792-12.792S35.841,18.698,28.787,18.698z"/>
		</g>
		<g>
			<path fill="#EDEDED" d="M25.637,27.119c0-3.313,1.233-6.331,3.253-8.643c-0.079-0.001-0.155-0.012-0.234-0.012
				c-7.267,0-13.159,5.891-13.159,13.159s5.891,13.159,13.159,13.159c3.952,0,7.488-1.751,9.9-4.509
				C31.398,40.145,25.637,34.307,25.637,27.119z"/>
			<path fill="#706F6F" d="M28.655,45.281c-7.531,0-13.659-6.127-13.659-13.658s6.127-13.659,13.659-13.659
				c0.055,0,0.108,0.003,0.162,0.007l1.074,0.02l-0.625,0.813c-2.018,2.31-3.129,5.263-3.129,8.314
				c0,6.854,5.575,12.531,12.427,12.653l1.075,0.02l-0.708,0.81C36.331,43.575,32.585,45.281,28.655,45.281z M27.825,19.001
				c-6.637,0.463-11.829,5.947-11.829,12.622c0,6.979,5.679,12.658,12.659,12.658c3.29,0,6.44-1.291,8.796-3.572
				c-6.884-0.682-12.314-6.562-12.314-13.59C25.137,24.191,26.084,21.348,27.825,19.001z"/>
		</g>
		<g>
			<polygon fill="#FFFFFF" points="11.239,34.797 12.102,40.036 17.341,40.899 12.102,41.762 11.239,47.002 10.376,41.762 
				5.136,40.899 10.376,40.036 			"/>
			<path fill="#706F6F" d="M11.239,48.54l-1.081-6.561l-6.56-1.08l6.561-1.081l1.081-6.56l1.081,6.56l6.561,1.081l-6.561,1.08
				L11.239,48.54z M6.675,40.899l3.918,0.645l0.646,3.92l0.645-3.92l3.919-0.645l-3.919-0.646l-0.645-3.919l-0.646,3.919
				L6.675,40.899z"/>
		</g>
	</g>
	<g id="LUNE" display="none">
		<g display="inline">
			<path fill="#EDEDED" d="M25.637,26.986c0-3.313,1.233-6.331,3.253-8.643c-0.079-0.001-0.155-0.012-0.234-0.012
				c-7.267,0-13.159,5.891-13.159,13.159s5.891,13.159,13.159,13.159c3.952,0,7.488-1.751,9.9-4.509
				C31.398,40.012,25.637,34.174,25.637,26.986z"/>
			<path fill="#706F6F" d="M28.655,45.148c-7.531,0-13.659-6.127-13.659-13.659c0-7.531,6.127-13.658,13.659-13.658
				c0.055,0,0.108,0.003,0.162,0.007l1.074,0.02l-0.625,0.813c-2.018,2.31-3.129,5.263-3.129,8.314
				c0,6.854,5.575,12.531,12.427,12.653l1.075,0.02l-0.708,0.81C36.331,43.442,32.585,45.148,28.655,45.148z M27.825,18.868
				c-6.637,0.463-11.829,5.947-11.829,12.622c0,6.98,5.679,12.659,12.659,12.659c3.29,0,6.44-1.291,8.796-3.572
				c-6.884-0.682-12.314-6.562-12.314-13.59C25.137,24.059,26.084,21.215,27.825,18.868z"/>
		</g>
		<g display="inline">
			<polygon fill="#FFFFFF" points="11.239,34.664 12.102,39.903 17.341,40.766 12.102,41.629 11.239,46.869 10.376,41.629 
				5.136,40.766 10.376,39.903 			"/>
			<path fill="#706F6F" d="M11.239,48.407l-1.081-6.561l-6.56-1.08l6.561-1.081l1.081-6.56l1.081,6.56l6.561,1.081l-6.561,1.08
				L11.239,48.407z M6.675,40.767l3.918,0.645l0.646,3.92l0.645-3.92l3.919-0.645l-3.919-0.646l-0.645-3.919l-0.646,3.919
				L6.675,40.767z"/>
		</g>
	</g>
	<g id="NUAGE_SOLEIL">
		<g>
			<path fill="#FFFFFF" d="M34.451,32.391l4.28-3.373l4.196,0.219l2.579,1.113l6.69-1.75c0,0,2.65,0.191,2.813,0.219
				c0.163,0.029,3.547,1.375,3.547,1.375l1.13,1.29l-0.063,2.069l-0.893,1.106l-2.282,0.673l-3.281,0.177l-4.429-0.057l-6.322-0.155
				c0,0-3.373-0.249-3.529-0.249c-0.156,0-3.387-0.283-3.387-0.283l-1.148-0.354L34.451,32.391z"/>
		</g>
		<g>
			<path fill="#8E8B92" d="M56.415,36.414H37.362c-0.257-0.002-2.486-0.058-3.513-1.563c-0.401-0.588-0.753-1.615-0.153-3.168
				l0.075-0.154c2.056-3.425,8.354-4.06,12.398-2.317c0.507,0.218,0.741,0.807,0.523,1.314c-0.22,0.508-0.812,0.739-1.314,0.523
				c-3.436-1.479-8.446-0.734-9.849,1.438c-0.2,0.555-0.21,0.972-0.028,1.239c0.348,0.51,1.427,0.687,1.866,0.689h19.047
				c0.553,0,1,0.447,1,1S56.968,36.414,56.415,36.414z"/>
		</g>
		<g>
			<path fill="#8E8B92" d="M56.562,36.414c-0.553,0-1-0.447-1-1s0.447-1,1-1c1.063,0,2.04-0.446,2.376-1.084
				c0.253-0.483,0.126-1.098-0.377-1.827c-1.528-2.215-5.688-2.114-7.677-1.749c-2.092,0.384-5.179,0.95-6.539,2.909
				c-0.314,0.454-0.938,0.567-1.392,0.251c-0.454-0.315-0.566-0.938-0.251-1.392c1.83-2.636,5.405-3.292,7.771-3.726
				c0.769-0.142,7.144-1.184,9.733,2.571c1.257,1.822,0.854,3.22,0.501,3.892C60.021,35.568,58.394,36.414,56.562,36.414z"/>
		</g>
	</g>
</g>
</svg>
