<?xml version="1.0" encoding="utf-8"?>
<!-- Generator: Adobe Illustrator 17.0.0, SVG Export Plug-In . SVG Version: 6.00 Build 0)  -->
<!DOCTYPE svg PUBLIC "-//W3C//DTD SVG 1.1 Tiny//EN" "http://www.w3.org/Graphics/SVG/1.1/DTD/svg11-tiny.dtd">
<svg version="1.1" baseProfile="tiny" id="Calque_1"
	 xmlns="http://www.w3.org/2000/svg" xmlns:xlink="http://www.w3.org/1999/xlink" x="0px" y="0px" width="65.2px" height="65.2px"
	 viewBox="0 0 65.2 65.2" xml:space="preserve">
<g>
</g>
<g>
</g>
<g id="LUNE_1_">
	<g>
		<circle fill="#706F6F" cx="23.203" cy="22.524" r="11.068"/>
		<path fill="#706F6F" d="M23.203,34.092c-6.378,0-11.568-5.189-11.568-11.567s5.189-11.568,11.568-11.568
			s11.567,5.189,11.567,11.568S29.582,34.092,23.203,34.092z M23.203,11.957c-5.827,0-10.568,4.741-10.568,10.568
			c0,5.827,4.741,10.567,10.568,10.567c5.827,0,10.567-4.741,10.567-10.567C33.771,16.697,29.03,11.957,23.203,11.957z"/>
	</g>
	<g>
		<path fill="#EDEDED" d="M20.58,18.885c0-2.759,1.026-5.271,2.708-7.197c-0.065-0.001-0.129-0.01-0.195-0.01
			c-6.051,0-10.957,4.906-10.957,10.957s4.906,10.957,10.957,10.957c3.291,0,6.235-1.458,8.243-3.754
			C25.377,29.731,20.58,24.87,20.58,18.885z"/>
		<path fill="#706F6F" d="M23.093,34.092c-6.317,0-11.457-5.14-11.457-11.457s5.14-11.457,11.457-11.457
			c0.047,0,0.093,0.003,0.139,0.006l1.001,0.072l-0.569,0.761c-1.667,1.908-2.585,4.347-2.585,6.868
			c0,5.663,4.605,10.352,10.266,10.453l1.076,0.02l-0.708,0.81C29.531,32.661,26.39,34.092,23.093,34.092z M22.228,12.222
			c-5.393,0.465-9.591,4.958-9.591,10.413c0,5.766,4.691,10.457,10.457,10.457c2.657,0,5.205-1.02,7.136-2.827
			c-5.688-0.656-10.149-5.546-10.149-11.38C20.08,16.489,20.836,14.161,22.228,12.222z"/>
	</g>
	<g>
		<polygon fill="#FFFFFF" points="8.591,25.278 9.31,29.64 13.672,30.359 9.31,31.078 8.591,35.44 7.872,31.078 3.51,30.359 
			7.872,29.64 		"/>
		<path fill="#706F6F" d="M8.591,36.979l-0.936-5.684l-5.684-0.936l5.684-0.936l0.936-5.684l0.936,5.684l5.684,0.936l-5.684,0.936
			L8.591,36.979z M5.047,30.359L8.09,30.86l0.501,3.042l0.501-3.042l3.042-0.501l-3.042-0.501l-0.501-3.042L8.09,29.858
			L5.047,30.359z"/>
	</g>
</g>
<g id="LUNE_2_" display="none">
	<g id="LUNE_3_" display="inline">
		<path fill="#EDEDED" stroke="#706F6F" stroke-miterlimit="10" d="M17.159,11.085c0-2.297,0.855-4.39,2.255-5.994
			c-0.055-0.001-0.107-0.008-0.162-0.008c-5.04,0-9.125,4.085-9.125,9.125s4.085,9.125,9.125,9.125c2.74,0,5.192-1.214,6.865-3.127
			C21.154,20.118,17.159,16.069,17.159,11.085z"/>
		<polygon fill="#FFFFFF" stroke="#706F6F" stroke-width="0.5" stroke-miterlimit="10" points="8.485,20.183 9.14,24.156 
			13.112,24.81 9.14,25.464 8.485,29.437 7.831,25.464 3.859,24.81 7.831,24.156 		"/>
	</g>
</g>
<g id="BLANC_1_">
	<g>
		<path fill="#FFFFFF" d="M54.758,26.552c0,0,0-10.161-11.561-10.161c-11.622,0-10.587,10.161-10.587,10.161s-8.762,0-8.762,7.727
			c0,7.728,7.728,7.728,7.728,7.728h23.182c0,0,7.727,0,7.727-7.728C62.485,26.552,54.758,26.552,54.758,26.552
			s-6.857-0.788-7.727,3.901"/>
		<path fill="#8E8B92" d="M54.758,43.007H31.576c-3.019,0-8.728-1.824-8.728-8.728c0-6.257,5.246-8.341,8.742-8.677
			c0.043-1.543,0.432-4.485,2.562-6.842c2.019-2.235,5.062-3.369,9.045-3.369c10.24,0,12.133,7.515,12.482,10.212
			c3.125,0.338,7.806,2.425,7.806,8.676C63.485,41.183,57.776,43.007,54.758,43.007z M43.197,17.391
			c-3.393,0-5.938,0.912-7.562,2.71c-2.378,2.633-2.034,6.312-2.031,6.349l0.112,1.097l-1.104,0.004
			c-0.317,0.001-7.764,0.106-7.764,6.728c0,6.651,6.453,6.728,6.728,6.728h23.182c0.272-0.002,6.728-0.114,6.728-6.728
			c0-6.651-6.453-6.728-6.728-6.728l-0.112-0.006c-0.062-0.006-5.943-0.622-6.631,3.09l-1.967-0.365
			c0.713-3.838,4.818-4.773,7.613-4.781C53.295,23.065,51.546,17.391,43.197,17.391z"/>
	</g>
	<g>
		<path fill="#FFFFFF" d="M32.61,26.552c0,0-8.762,0-8.762,7.727c0,7.728,7.728,7.728,7.728,7.728h23.182c0,0,7.727,0,7.727-7.728
			c0-7.727-7.727-7.727-7.727-7.727s-6.857-0.788-7.727,3.901"/>
		<path fill="#8E8B92" d="M54.758,43.007H31.576c-3.019,0-8.728-1.824-8.728-8.728s6.386-8.728,9.762-8.728l0.002,2
			c-0.317,0.001-7.764,0.106-7.764,6.728c0,6.651,6.453,6.728,6.728,6.728h23.182c0.272-0.002,6.728-0.114,6.728-6.728
			c0-6.651-6.453-6.728-6.728-6.728l-0.112-0.006c-0.062-0.006-5.943-0.622-6.631,3.09l-1.967-0.365
			c0.818-4.405,6.062-5.016,8.768-4.719c3.033,0.023,8.67,1.868,8.67,8.728C63.485,41.183,57.776,43.007,54.758,43.007z"/>
	</g>
	<g>
		<path fill="#8E8B92" d="M32.771,29.273c-1.06-0.945-1.143-2.512-1.149-2.688c-0.014-0.12-0.427-4.54,2.542-7.826
			c2.019-2.235,5.062-3.369,9.045-3.369c12.418,0,12.562,11.049,12.562,11.161h-2h1l-1,0.003c-0.002-0.375-0.17-9.164-10.562-9.164
			c-3.393,0-5.938,0.912-7.562,2.71c-2.378,2.633-2.034,6.312-2.031,6.349c0.015,0.289,0.126,1.01,0.486,1.33L32.771,29.273z"/>
	</g>
</g>
<g>
	<path d="M45.499,49.513h-1.233v-5.318h1.233V49.513z"/>
	<path d="M50.582,47.595c0,0.632-0.184,1.129-0.552,1.492s-0.885,0.545-1.551,0.545c-0.665,0-1.182-0.182-1.55-0.545
		s-0.552-0.86-0.552-1.492c0-0.635,0.186-1.135,0.556-1.496c0.37-0.363,0.886-0.544,1.546-0.544c0.67,0,1.188,0.183,1.554,0.547
		C50.399,46.466,50.582,46.964,50.582,47.595z M49.067,48.528c0.08-0.098,0.14-0.216,0.18-0.354s0.061-0.329,0.061-0.572
		c0-0.227-0.021-0.415-0.062-0.568c-0.041-0.152-0.098-0.274-0.17-0.365c-0.073-0.094-0.161-0.159-0.264-0.198
		s-0.213-0.058-0.332-0.058c-0.118,0-0.224,0.016-0.315,0.047c-0.093,0.032-0.181,0.096-0.265,0.191
		c-0.076,0.09-0.136,0.211-0.18,0.366c-0.045,0.155-0.066,0.35-0.066,0.585c0,0.209,0.019,0.391,0.058,0.545
		c0.039,0.153,0.096,0.277,0.171,0.371c0.073,0.088,0.16,0.153,0.262,0.194s0.217,0.062,0.347,0.062
		c0.111,0,0.218-0.019,0.319-0.057C48.911,48.681,48.997,48.617,49.067,48.528z"/>
	<path d="M53.463,49.615c-0.334,0-0.641-0.04-0.917-0.12c-0.277-0.079-0.519-0.202-0.724-0.369
		c-0.202-0.166-0.359-0.375-0.471-0.629c-0.112-0.252-0.168-0.549-0.168-0.889c0-0.357,0.06-0.666,0.18-0.926
		c0.119-0.26,0.286-0.475,0.5-0.646c0.208-0.161,0.447-0.279,0.719-0.355c0.271-0.074,0.552-0.112,0.844-0.112
		c0.262,0,0.504,0.028,0.725,0.085c0.221,0.058,0.428,0.132,0.619,0.223v1.049h-0.175c-0.048-0.041-0.105-0.088-0.172-0.143
		c-0.067-0.055-0.149-0.108-0.248-0.161c-0.093-0.05-0.195-0.092-0.307-0.125s-0.241-0.05-0.39-0.05
		c-0.327,0-0.579,0.104-0.756,0.313c-0.176,0.208-0.264,0.491-0.264,0.849c0,0.369,0.09,0.65,0.271,0.842
		c0.182,0.191,0.438,0.287,0.77,0.287c0.155,0,0.295-0.019,0.419-0.054c0.123-0.035,0.227-0.077,0.309-0.124
		c0.077-0.046,0.146-0.094,0.204-0.145c0.06-0.05,0.114-0.099,0.164-0.146h0.175v1.049c-0.194,0.092-0.396,0.164-0.607,0.218
		S53.719,49.615,53.463,49.615z"/>
	<path d="M56.905,49.513h-1.279v-1.344h1.279V49.513z"/>
</g>
<g id="ECLAIR_2_">
	<polygon fill="#EA5813" points="24.389,53.787 33.668,45.426 31.431,40.763 50.18,31.858 38.153,42.143 40.472,46.426 	"/>
	<path fill="#FFFFFF" d="M24.493,54.015l-0.271-0.413l9.14-8.235l-2.264-4.722l18.975-9.012l0.27,0.416L38.469,42.201l2.352,4.341
		L24.493,54.015z M31.765,40.881l2.208,4.606l-8.206,7.394l14.357-6.571l-2.289-4.226l10.75-9.192L31.765,40.881z"/>
</g>
<g>
</g>
<g>
</g>
</svg>
