<?xml version="1.0" encoding="utf-8"?>
<!-- Generator: Adobe Illustrator 17.0.0, SVG Export Plug-In . SVG Version: 6.00 Build 0)  -->
<!DOCTYPE svg PUBLIC "-//W3C//DTD SVG 1.1 Tiny//EN" "http://www.w3.org/Graphics/SVG/1.1/DTD/svg11-tiny.dtd">
<svg version="1.1" baseProfile="tiny" id="Calque_1"
	 xmlns="http://www.w3.org/2000/svg" xmlns:xlink="http://www.w3.org/1999/xlink" x="0px" y="0px" width="65.2px" height="65.2px"
	 viewBox="0 0 65.2 65.2" xml:space="preserve">
<g>
	<path fill="#FAD200" d="M7.185,29.82c0,0,12.778-1.262-1.336-8.653c0-0.045,15.227,5.076,6.411-5.655c0,0,10.374,9.247,5.744-6.396
		c1.425,2.345,7.257,12.763,8.682,0.341c0.846,3.384,1.736,12.052,8.682-0.341c-0.801,4.615-3.428,13.876,5.922,6.218
		c-1.647,2.315-8.059,10.33,6.233,5.788c-3.606,2.36-12.155,7.005-1.425,8.578c-2.226,0.594-11.309,2.063,1.425,8.741
		c-5.031-0.801-13.446-3.384-6.456,5.61c-2.894-1.736-9.395-7.494-5.699,6.471c-2.538-3.666-6.782-12.081-8.511-0.282
		c-0.438-1.603-1.863-12.748-8.898,0.282c0.668-3.622,4.185-13.773-5.699-6.516c1.158-1.781,8.148-9.395-6.411-5.565
		C7.185,37.641,19.206,31.571,7.185,29.82z"/>
</g>
<g>
</g>
<g>
	<g id="NUAGE_SOLEIL">
		<g>
			<path fill="#FFFFFF" d="M35.524,29.659l4.28-3.373L44,26.505l2.579,1.113l6.69-1.75c0,0,2.65,0.191,2.813,0.219
				c0.163,0.029,3.547,1.375,3.547,1.375l1.13,1.29l-0.063,2.069l-0.893,1.106L57.521,32.6l-3.281,0.177l-4.429-0.057l-6.322-0.155
				c0,0-3.373-0.249-3.529-0.249c-0.156,0-3.387-0.283-3.387-0.283l-1.148-0.354L35.524,29.659z"/>
		</g>
		<g>
			<path fill="#8E8B92" d="M57.488,33.683H38.435c-0.257-0.001-2.486-0.058-3.512-1.563c-0.401-0.589-0.753-1.616-0.153-3.169
				l0.075-0.154c2.058-3.427,8.354-4.058,12.397-2.317c0.507,0.218,0.741,0.807,0.523,1.314c-0.22,0.508-0.811,0.739-1.314,0.523
				c-3.432-1.476-8.444-0.735-9.848,1.438c-0.2,0.555-0.21,0.972-0.028,1.239c0.348,0.51,1.427,0.687,1.865,0.689h19.048
				c0.553,0,1,0.448,1,1S58.041,33.683,57.488,33.683z"/>
		</g>
		<g>
			<path fill="#8E8B92" d="M57.635,33.683c-0.553,0-1-0.448-1-1s0.447-1,1-1c1.063,0,2.04-0.446,2.375-1.084
				c0.253-0.483,0.127-1.098-0.377-1.827c-1.528-2.215-5.688-2.112-7.677-1.75c-2.091,0.383-5.179,0.949-6.538,2.909
				c-0.315,0.454-0.938,0.567-1.392,0.251c-0.453-0.315-0.566-0.938-0.251-1.392c1.83-2.637,5.406-3.292,7.772-3.726
				c0.768-0.142,7.141-1.185,9.731,2.572c1.257,1.821,0.854,3.22,0.501,3.892C61.094,32.837,59.466,33.683,57.635,33.683z"/>
		</g>
	</g>
</g>
<g>
</g>
<g>
</g>
</svg>
