<?xml version="1.0" encoding="utf-8"?>
<!-- Generator: Adobe Illustrator 17.0.0, SVG Export Plug-In . SVG Version: 6.00 Build 0)  -->
<!DOCTYPE svg PUBLIC "-//W3C//DTD SVG 1.1 Tiny//EN" "http://www.w3.org/Graphics/SVG/1.1/DTD/svg11-tiny.dtd">
<svg version="1.1" baseProfile="tiny" id="Calque_1"
	 xmlns="http://www.w3.org/2000/svg" xmlns:xlink="http://www.w3.org/1999/xlink" x="0px" y="0px" width="65.2px" height="65.2px"
	 viewBox="0 0 65.2 65.2" xml:space="preserve">
<g>
	<g>
		<path fill="#FAD200" d="M4.851,30.882c0,0,12.778-1.262-1.336-8.653c0-0.045,15.227,5.076,6.411-5.655
			c0,0,10.374,9.247,5.744-6.396c1.425,2.345,7.257,12.763,8.682,0.341c0.846,3.384,1.736,12.052,8.682-0.341
			c-0.801,4.615-3.428,13.876,5.922,6.218c-1.647,2.315-8.059,10.33,6.233,5.788c-3.606,2.36-12.155,7.005-1.425,8.578
			c-2.226,0.594-11.309,2.063,1.425,8.741c-5.031-0.801-13.446-3.384-6.456,5.61c-2.894-1.736-10.233-14.524-6.538-0.559
			c-2.538-3.666-6.782-12.081-8.511-0.282c-0.438-1.603-1.863-12.748-8.898,0.282c0.668-3.622,6.364-7.727-3.52-0.47
			c1.158-1.781,6.807-8.41-7.752-4.581C4.851,38.703,16.872,32.634,4.851,30.882z"/>
	</g>
	<g id="GRIS">
		<g>
			<path fill="#737176" d="M54.758,26.753c0,0,0-10.161-11.561-10.161c-11.622,0-10.587,10.161-10.587,10.161s-8.762,0-8.762,7.727
				c0,7.728,7.728,7.728,7.728,7.728h23.182c0,0,7.727,0,7.727-7.728C62.485,26.753,54.758,26.753,54.758,26.753
				s-6.857-0.788-7.727,3.901"/>
		</g>
		<g>
			<path fill="#272824" d="M54.758,43.208H31.576c-3.019,0-8.728-1.824-8.728-8.728s6.386-8.727,9.762-8.727l0.002,2
				c-0.317,0.001-7.764,0.106-7.764,6.727c0,6.651,6.453,6.728,6.728,6.728h23.182c0.272-0.002,6.728-0.114,6.728-6.728
				c0-6.65-6.453-6.727-6.728-6.727l-0.112-0.006c-0.062-0.005-5.943-0.623-6.631,3.09l-1.967-0.365
				c0.818-4.405,6.062-5.013,8.768-4.718c3.033,0.023,8.67,1.868,8.67,8.727C63.485,41.384,57.776,43.208,54.758,43.208z"/>
		</g>
		<g>
			<path fill="#272824" d="M32.923,29.474c-1.059-0.945-1.142-2.511-1.148-2.687c-0.014-0.12-0.427-4.541,2.542-7.826
				c2.02-2.235,5.062-3.369,9.045-3.369c3.946,0,7.052,1.123,9.23,3.337c3.203,3.255,3.169,7.654,3.166,7.84l-2-0.032l1,0.016
				l-1-0.014c0.001-0.037,0.01-3.778-2.606-6.423c-1.789-1.808-4.41-2.725-7.79-2.725c-3.384,0-5.924,0.907-7.549,2.696
				c-2.374,2.614-2.046,6.33-2.043,6.367c0.015,0.286,0.125,1.006,0.485,1.327L32.923,29.474z"/>
		</g>
	</g>
	<g id="BLANC">
		<g>
			<path fill="#FFFFFF" d="M41.051,33.319c0,0,0-10.161-11.561-10.161c-11.622,0-10.587,10.161-10.587,10.161s-8.762,0-8.762,7.727
				c0,7.728,7.728,7.728,7.728,7.728h23.182c0,0,7.727,0,7.727-7.728C48.778,33.319,41.051,33.319,41.051,33.319
				s-6.857-0.788-7.727,3.901"/>
		</g>
		<g>
			<path fill="#272824" d="M41.052,49.774H17.869c-3.019,0-8.728-1.824-8.728-8.729c0-6.903,6.386-8.727,9.762-8.727l0.002,2
				c-0.317,0.002-7.764,0.106-7.764,6.728c0,6.614,6.456,6.727,6.731,6.729h23.18c0.272-0.002,6.727-0.114,6.727-6.729
				c0-6.613-6.454-6.726-6.729-6.728l-0.109-0.006c-0.063-0.009-5.944-0.621-6.632,3.09l-1.967-0.365
				c0.817-4.404,6.063-5.015,8.769-4.718c3.032,0.023,8.669,1.868,8.669,8.727C49.778,47.95,44.07,49.774,41.052,49.774z"/>
		</g>
		<g>
			<path fill="#272824" d="M19.064,36.04c-1.06-0.944-1.143-2.512-1.149-2.687c-0.014-0.12-0.427-4.54,2.542-7.826
				c2.02-2.235,5.063-3.369,9.045-3.369c12.417,0,12.561,11.049,12.561,11.161h-2h1l-1,0.003c-0.002-0.375-0.17-9.164-10.561-9.164
				c-3.393,0-5.937,0.912-7.562,2.71c-2.379,2.633-2.035,6.312-2.031,6.35c0.015,0.288,0.126,1.009,0.486,1.33L19.064,36.04z"/>
		</g>
	</g>
	<g id="BARRE_NIEGE">
		<rect x="20.246" y="47.36" fill="#FFFFFF" width="12.505" height="2.454"/>
	</g>
	<g id="NEIGE">
		<path fill="#FFFFFF" d="M16.614,49.501l0.086-0.243c0.668-1.885,2.553-1.218,2.553-1.218l1.806,0.64l-0.479-1.855
			c0,0-0.501-1.937,1.435-2.437l0.25-0.065c0,0,1.936-0.501,2.437,1.435l0.621,2.401l1.872-1.627
			c1.509-1.312,2.821,0.198,2.821,0.198l0.17,0.195c1.312,1.509-0.198,2.821-0.198,2.821l-1.713,1.489l2.14,0.758
			c1.885,0.668,1.218,2.553,1.218,2.553l-0.087,0.243c-0.667,1.885-2.552,1.218-2.552,1.218l-1.807-0.64l0.48,1.855
			c0,0,0.501,1.937-1.436,2.437l-0.25,0.065c0,0-1.936,0.501-2.437-1.435l-0.621-2.401l-1.871,1.627
			c-1.51,1.312-2.822-0.198-2.822-0.198l-0.169-0.195c-1.312-1.509,0.197-2.821,0.197-2.821l1.713-1.489l-2.139-0.758
			C15.946,51.386,16.614,49.501,16.614,49.501z"/>
		<path fill="#27348B" d="M25.439,60.282c-1.205,0-2.072-0.681-2.379-1.868l-0.419-1.619l-1.261,1.097
			c-0.503,0.438-1.046,0.659-1.615,0.659c-1.113,0-1.88-0.868-1.913-0.905l-0.169-0.196c-1.297-1.491-0.406-2.958,0.247-3.525
			l1.066-0.928l-1.331-0.471c-0.948-0.336-1.532-1.023-1.646-1.937c-0.081-0.653,0.102-1.195,0.123-1.255l0.086-0.243
			c0.38-1.074,1.188-1.665,2.274-1.665c0.498,0,0.876,0.128,0.917,0.143l0.92,0.326l-0.244-0.944
			c-0.016-0.062-0.151-0.617-0.014-1.261c0.192-0.9,0.834-1.534,1.807-1.786l0.25-0.064c0.029-0.007,0.297-0.074,0.667-0.074
			c1.205,0,2.072,0.681,2.379,1.868l0.419,1.619l1.262-1.097c0.502-0.438,1.046-0.659,1.614-0.659c1.113,0,1.88,0.869,1.913,0.906
			l0.169,0.193c0.661,0.76,0.83,1.646,0.479,2.496c-0.251,0.608-0.677,0.99-0.725,1.031L29.25,51.05l1.332,0.472
			c1.863,0.661,1.811,2.376,1.522,3.191l-0.087,0.244c-0.379,1.073-1.187,1.664-2.272,1.664c-0.498,0-0.876-0.128-0.917-0.143
			l-0.92-0.326l0.244,0.944c0.016,0.062,0.151,0.617,0.014,1.261c-0.193,0.9-0.835,1.534-1.809,1.786l-0.25,0.064
			C26.077,60.215,25.809,60.282,25.439,60.282z M23.205,54.98l0.823,3.184c0.195,0.752,0.656,1.118,1.411,1.118
			c0.242,0,0.417-0.043,0.419-0.043l0.248-0.064c1.367-0.353,1.136-1.587,1.076-1.831l-0.715-2.762l2.693,0.953
			c0,0,0.255,0.086,0.583,0.086c0.657,0,1.092-0.326,1.331-0.999l0.087-0.244c0.08-0.233,0.416-1.442-0.914-1.913L27.3,51.421
			l2.36-2.052c0.186-0.165,1.075-1.052,0.149-2.116L29.64,47.06c-0.004-0.005-0.508-0.563-1.159-0.563
			c-0.32,0-0.643,0.14-0.958,0.413l-2.482,2.157l-0.823-3.184c-0.195-0.752-0.656-1.118-1.411-1.118
			c-0.242,0-0.417,0.043-0.419,0.043l-0.248,0.064c-0.612,0.158-0.965,0.494-1.079,1.026c-0.088,0.413,0.002,0.798,0.003,0.802
			l0.714,2.765l-2.692-0.953l0,0c0,0-0.256-0.086-0.583-0.086c-0.658,0-1.093,0.326-1.332,0.999l-0.086,0.243
			c-0.08,0.234-0.417,1.443,0.914,1.914l2.947,1.045l-2.36,2.051c-0.186,0.165-1.073,1.052-0.147,2.116l0.169,0.196
			c0.003,0.003,0.506,0.561,1.157,0.561c0.32,0,0.643-0.139,0.958-0.413L23.205,54.98z"/>
	</g>
</g>
<g>
</g>
<g>
</g>
</svg>
