<?xml version="1.0" encoding="utf-8"?>
<!-- Generator: Adobe Illustrator 17.0.0, SVG Export Plug-In . SVG Version: 6.00 Build 0)  -->
<!DOCTYPE svg PUBLIC "-//W3C//DTD SVG 1.1 Tiny//EN" "http://www.w3.org/Graphics/SVG/1.1/DTD/svg11-tiny.dtd">
<svg version="1.1" baseProfile="tiny" id="Calque_1"
	 xmlns="http://www.w3.org/2000/svg" xmlns:xlink="http://www.w3.org/1999/xlink" x="0px" y="0px" width="65.2px" height="65.2px"
	 viewBox="0 0 65.2 65.2" xml:space="preserve">
<g id="ENSEMBLE">
	<path fill="#FAD200" d="M4.851,30.882c0,0,12.778-1.262-1.336-8.653c0-0.045,15.227,5.076,6.411-5.655
		c0,0,10.374,9.247,5.744-6.396c1.425,2.345,7.257,12.763,8.682,0.341c0.846,3.384,1.736,12.052,8.682-0.341
		c-0.801,4.615-3.428,13.876,5.922,6.218c-1.647,2.315-8.059,10.33,6.233,5.788c-3.606,2.36-12.155,7.005-1.425,8.578
		c-2.226,0.594-11.309,2.063,1.425,8.741c-5.031-0.801-13.446-3.384-6.456,5.61c-2.894-1.736-10.233-14.524-6.538-0.559
		c-2.538-3.666-6.782-12.081-8.511-0.282c-0.438-1.603-1.863-12.748-8.898,0.282c0.668-3.622,6.364-7.727-3.52-0.47
		c1.158-1.781,6.807-8.41-7.752-4.581C4.851,38.703,16.872,32.634,4.851,30.882z"/>
	<g id="GRIS">
		<path fill="#737176" d="M54.402,26.338c0,0,0-10.161-11.561-10.161c-11.622,0-10.587,10.161-10.587,10.161s-8.762,0-8.762,7.727
			c0,7.728,7.728,7.728,7.728,7.728h23.182c0,0,7.727,0,7.727-7.728C62.129,26.338,54.402,26.338,54.402,26.338
			s-6.857-0.788-7.727,3.901"/>
		<path fill="none" stroke="#272824" stroke-width="2" d="M32.254,26.338c0,0-8.762,0-8.762,7.727c0,7.728,7.728,7.728,7.728,7.728
			h23.182c0,0,7.727,0,7.727-7.728c0-7.727-7.727-7.727-7.727-7.727s-6.857-0.788-7.727,3.901"/>
		<path fill="none" stroke="#272824" stroke-width="2" d="M54.402,26.338c0,0,0.164-10.161-11.397-10.161
			c-11.622,0-10.587,10.161-10.587,10.161s0.044,1.287,0.815,1.975"/>
	</g>
	<g id="BLANC">
		<path fill="#FFFFFF" d="M40.695,32.904c0,0,0-10.161-11.561-10.161c-11.622,0-10.587,10.161-10.587,10.161s-8.762,0-8.762,7.727
			c0,7.728,7.728,7.728,7.728,7.728h23.182c0,0,7.727,0,7.727-7.728C48.422,32.904,40.695,32.904,40.695,32.904
			s-6.857-0.788-7.727,3.901"/>
		<path fill="none" stroke="#272824" stroke-width="2" d="M18.547,32.904c0,0-8.762,0-8.762,7.727c0,7.728,7.728,7.728,7.728,7.728
			h23.182c0,0,7.727,0,7.727-7.728c0-7.727-7.727-7.727-7.727-7.727s-6.857-0.788-7.727,3.901"/>
		<path fill="none" stroke="#272824" stroke-width="2" d="M40.707,32.904c0,0,0-10.161-11.561-10.161
			c-11.622,0-10.587,10.161-10.587,10.161s0.044,1.287,0.815,1.975"/>
	</g>
	<g id="BLANC_ORAGE" display="none">
		<path display="inline" fill="#FFFFFF" d="M42.979,53.623c0,0-5.417,0-5.417,0.001c0,0-4.923-0.515-3.635-4.153
			c1.289-3.638,4.956-4.031,6.509-3.638c0,0,1.124,0.491,1.586,2.212c0.462,1.721-0.926-2.457-1.058-3.932
			c-0.132-1.474-1.619-7.226,0.628-11.157c2.246-3.932,6.64-6.193,9.647-3.539c3.006,2.654,3.171,8.258,3.304,9.093"/>
		<path display="inline" fill="#8E8B92" d="M42.979,53.623c-1.694,0.112-3.405,0.207-5.138,0.28l-0.32,0.113
			c-0.666-0.051-1.284-0.179-1.916-0.394c-0.623-0.217-1.249-0.546-1.762-1.093c-0.252-0.272-0.471-0.603-0.602-0.973
			c-0.088-0.18-0.11-0.372-0.145-0.564c-0.044-0.195-0.053-0.384-0.038-0.57c-0.01-0.388,0.084-0.731,0.166-1.084
			c0.129-0.409,0.195-0.589,0.351-0.932c0.161-0.329,0.333-0.652,0.537-0.929c0.185-0.297,0.432-0.553,0.67-0.812
			c0.251-0.25,0.518-0.48,0.809-0.683c0.29-0.199,0.592-0.388,0.912-0.533c0.633-0.307,1.311-0.509,2.004-0.602
			c0.698-0.091,1.395-0.103,2.164,0.062l0.08,0.017l0.069,0.034c0.379,0.186,0.559,0.33,0.784,0.527
			c0.214,0.185,0.398,0.392,0.562,0.609c0.329,0.434,0.572,0.915,0.732,1.403c0.04,0.118,0.094,0.253,0.121,0.359
			c0.03,0.114,0.058,0.183,0.103,0.427l0.008,0.071c0.007,0.087,0.003,0.18-0.013,0.27c-0.017,0.093-0.04,0.172-0.08,0.26
			c0.188,0.778-2.289,0.451-1.784,0.112c-0.035-0.054-0.088-0.16-0.095-0.179l-0.05-0.119l-0.066-0.177L40.932,48.2
			c-0.139-0.42-0.265-0.834-0.388-1.253c-0.238-0.854-0.476-1.645-0.615-2.653c-0.094-0.778-0.268-1.613-0.386-2.49
			c-0.221-1.738-0.336-3.531-0.096-5.351c0.113-0.906,0.31-1.824,0.67-2.704c0.165-0.459,0.383-0.835,0.639-1.319
			c0.237-0.358,0.439-0.702,0.752-1.098c0.576-0.762,1.197-1.421,1.932-2.006c0.724-0.584,1.542-1.066,2.435-1.405
			c0.89-0.337,1.886-0.496,2.873-0.377c0.99,0.109,1.93,0.561,2.652,1.185c0.103,0.088,0.161,0.127,0.299,0.257l0.215,0.235
			c0.143,0.159,0.287,0.301,0.431,0.509c0.306,0.385,0.533,0.776,0.754,1.168c0.405,0.805,0.695,1.643,0.912,2.488
			c0.221,0.845,0.344,1.704,0.427,2.559c0.09,0.855,0.079,1.713,0.104,2.563c-0.31-1.678-0.646-3.346-1.253-4.894
			c-0.297-0.773-0.658-1.514-1.098-2.184c-0.233-0.326-0.463-0.652-0.714-0.912c-0.105-0.138-0.276-0.283-0.432-0.426l-0.236-0.215
			c-0.023-0.008-0.139-0.091-0.204-0.134c-1.208-0.877-2.752-0.904-4.109-0.273c-0.681,0.306-1.307,0.753-1.888,1.253
			c-0.58,0.493-1.106,1.107-1.529,1.716c-0.211,0.275-0.431,0.671-0.647,1.031c-0.116,0.278-0.322,0.644-0.423,0.994
			c-0.258,0.704-0.428,1.459-0.509,2.24c-0.19,1.557-0.064,3.186,0.152,4.812c0.097,0.809,0.261,1.642,0.36,2.552
			c0.08,0.679,0.302,1.531,0.515,2.313l0.35,1.186l0.092,0.283l0.042,0.123l0.009,0.029c0.003,0.006-0.036-0.077-0.06-0.107
			c0.51-0.334-1.961-0.658-1.768,0.124c-0.039,0.081-0.063,0.154-0.08,0.24c-0.016,0.084-0.02,0.17-0.013,0.25l0.005,0.052
			c0.007,0.035-0.019-0.101-0.044-0.193c-0.022-0.1-0.051-0.163-0.075-0.247c-0.088-0.323-0.227-0.615-0.399-0.866
			c-0.086-0.124-0.182-0.244-0.285-0.339c-0.082-0.096-0.253-0.201-0.25-0.21l0.148,0.051c-0.423-0.11-0.965-0.14-1.478-0.089
			c-0.259,0.026-0.518,0.069-0.771,0.132c-0.253,0.06-0.506,0.131-0.743,0.234c-0.244,0.09-0.47,0.215-0.693,0.345
			c-0.221,0.133-0.426,0.288-0.622,0.457c-0.183,0.179-0.382,0.351-0.532,0.566c-0.175,0.205-0.299,0.416-0.427,0.626
			c-0.119,0.2-0.285,0.59-0.355,0.756c-0.074,0.237-0.172,0.479-0.179,0.708c-0.025,0.119-0.032,0.233-0.012,0.34
			c0.01,0.11,0.002,0.227,0.049,0.326c0.05,0.213,0.155,0.415,0.299,0.604c0.288,0.381,0.745,0.69,1.245,0.936
			c0.5,0.241,1.073,0.429,1.618,0.534l-0.32,0.113C39.161,53.417,41.062,53.511,42.979,53.623z"/>
		<path display="inline" fill="#FFFFFF" d="M51.835,42.492c1.268-5.652,10.676-8.032,10.676,2.38c0,8.484-6.319,8.876-6.727,8.776"
			/>
		<path display="inline" fill="#8E8B92" d="M51.835,42.492c0,0,0.017-0.118,0.049-0.34c0.054-0.219,0.031-0.555,0.189-0.955
			c0.142-0.408,0.322-0.934,0.673-1.434c0.147-0.276,0.356-0.527,0.588-0.788c0.117-0.131,0.237-0.266,0.36-0.403
			c0.143-0.117,0.289-0.237,0.438-0.36c0.585-0.514,1.356-0.922,2.246-1.192c0.889-0.225,1.951-0.362,2.989,0.012
			c0.541,0.115,0.998,0.446,1.488,0.729c0.221,0.168,0.413,0.372,0.621,0.564c0.207,0.195,0.404,0.399,0.537,0.639
			c0.299,0.462,0.619,0.929,0.777,1.437l0.291,0.753c0.09,0.252,0.12,0.507,0.182,0.762c0.249,1.05,0.232,1.989,0.273,3.076
			c-0.024,0.464-0.059,0.924-0.102,1.378c-0.078,0.492-0.178,0.994-0.27,1.474c-0.141,0.465-0.265,0.923-0.436,1.355
			c-0.216,0.421-0.373,0.85-0.627,1.224c-0.456,0.772-1.038,1.412-1.647,1.893c-0.604,0.488-1.233,0.821-1.813,1.025
			c-0.568,0.233-1.101,0.305-1.524,0.363c-0.859,0.092-1.334-0.053-1.334-0.053s0.12-0.001,0.335-0.055
			c0.215-0.048,0.522-0.158,0.897-0.304c0.37-0.164,0.811-0.369,1.259-0.681c0.456-0.297,0.911-0.703,1.337-1.185
			c0.204-0.251,0.418-0.505,0.582-0.812c0.196-0.28,0.344-0.607,0.498-0.936c0.166-0.321,0.243-0.704,0.376-1.059
			c0.084-0.378,0.169-0.764,0.256-1.156c0.041-0.391,0.083-0.789,0.126-1.192c-0.001-0.456,0.009-0.917,0.029-1.381
			c-0.068-0.765-0.073-1.729-0.298-2.516c-0.044-0.204-0.059-0.425-0.125-0.617l-0.207-0.569c-0.105-0.406-0.33-0.71-0.519-1.038
			c-0.081-0.18-0.214-0.301-0.337-0.429c-0.122-0.128-0.229-0.279-0.357-0.397c-0.294-0.174-0.544-0.437-0.883-0.519
			c-0.622-0.287-1.346-0.306-2.03-0.233c-0.338,0.079-0.685,0.113-0.995,0.255c-0.324,0.104-0.635,0.222-0.908,0.396
			c-0.143,0.078-0.282,0.154-0.419,0.228c-0.124,0.094-0.246,0.186-0.364,0.275c-0.247,0.173-0.48,0.344-0.656,0.549
			c-0.407,0.375-0.677,0.749-0.912,1.077c-0.243,0.323-0.358,0.65-0.474,0.838C51.89,42.385,51.835,42.492,51.835,42.492z"/>
	</g>
	<g id="BLANC_SOLEIL" display="none">
		<path display="inline" fill="#FFFFFF" d="M52.865,35.787c0,0,0-9.175-10.439-9.175c-10.494,0-9.559,9.175-9.559,9.175
			s-7.912,0-7.912,6.977c0,6.978,6.978,6.978,6.978,6.978h20.932c0,0,6.977,0,6.977-6.978
			C59.842,35.787,52.865,35.787,52.865,35.787s-6.191-0.712-6.977,3.522"/>
		<path display="inline" fill="#8E8B92" d="M32.866,35.787c-1.368,0.14-2.699,0.525-3.901,1.11c-1.187,0.611-2.206,1.516-2.78,2.654
			c-0.58,1.132-0.716,2.451-0.602,3.717c0.047,0.725,0.195,1.267,0.4,1.848c0.223,0.574,0.496,1.124,0.895,1.575
			c0.752,0.941,1.86,1.547,3.056,1.882c0.599,0.155,1.229,0.27,1.831,0.297l2.011-0.023c2.747-0.051,5.495-0.077,8.242-0.082
			c2.747-0.02,5.495-0.027,8.242-0.003l2.061,0.01l0.515,0.003c0.149-0.001,0.26-0.009,0.422-0.024
			c0.301-0.026,0.607-0.076,0.908-0.137c1.204-0.251,2.35-0.743,3.185-1.555c0.851-0.792,1.386-1.888,1.566-3.114
			c0.185-1.203,0.133-2.598-0.236-3.688c-0.39-1.145-1.134-2.165-2.207-2.824c-1.043-0.681-2.356-1.066-3.611-1.189l-0.052-0.003
			c-0.656-0.096-1.371-0.121-2.058-0.088c-0.692,0.034-1.385,0.132-2.039,0.348c-0.326,0.106-0.652,0.231-0.946,0.405
			c-0.143,0.093-0.308,0.16-0.436,0.274l-0.404,0.324l-0.345,0.388c-0.13,0.122-0.19,0.291-0.288,0.437
			c-0.094,0.15-0.184,0.304-0.23,0.476l-0.179,0.506L46,38.781c0.026-0.182,0.095-0.349,0.171-0.515
			c0.081-0.163,0.124-0.35,0.241-0.494l0.314-0.46l0.393-0.397c0.13-0.137,0.295-0.226,0.442-0.342
			c0.301-0.22,0.639-0.389,0.979-0.537c0.684-0.301,1.412-0.476,2.143-0.584c0.738-0.106,1.462-0.154,2.233-0.117l-0.052-0.003
			c1.486-0.01,2.908,0.338,4.235,1.048c1.337,0.681,2.415,1.94,2.962,3.365c0.561,1.497,0.654,2.919,0.518,4.436
			c-0.159,1.5-0.825,3.045-1.959,4.164c-1.119,1.14-2.579,1.818-4.051,2.145c-0.371,0.079-0.743,0.144-1.127,0.181
			c-0.179,0.02-0.411,0.036-0.606,0.038l-0.515,0.003l-2.061,0.01c-2.747,0.024-5.495,0.018-8.242-0.003
			c-2.747-0.005-5.495-0.032-8.242-0.082c-0.709-0.015-1.325-0.01-2.109-0.042c-0.769-0.061-1.495-0.21-2.214-0.442
			c-1.42-0.471-2.799-1.307-3.716-2.573c-0.476-0.61-0.804-1.322-1.022-2.044c-0.211-0.721-0.331-1.544-0.322-2.191
			c-0.029-1.456,0.217-2.975,1.037-4.23c0.796-1.259,2.036-2.134,3.34-2.653C30.089,35.952,31.491,35.746,32.866,35.787z"/>
		<path display="inline" fill="#8E8B92" d="M52.876,35.787c0,0-0.025-0.126-0.072-0.362c-0.051-0.235-0.154-0.573-0.279-0.995
			c-0.135-0.422-0.332-0.918-0.577-1.468c-0.269-0.54-0.594-1.131-1.023-1.709c-0.22-0.285-0.437-0.587-0.722-0.846
			c-0.132-0.137-0.266-0.276-0.402-0.417c-0.152-0.123-0.306-0.247-0.463-0.373c-0.615-0.513-1.373-0.894-2.168-1.232
			c-0.811-0.319-1.699-0.511-2.622-0.64c-0.45-0.107-0.939-0.073-1.411-0.11l-0.658-0.033l-0.764,0.052
			c-1.076,0.02-1.905,0.167-2.783,0.397c-0.863,0.267-1.71,0.561-2.388,1.067c-0.717,0.453-1.272,1.067-1.757,1.691
			c-0.433,0.661-0.805,1.339-1.038,2.024c-0.233,0.681-0.406,1.338-0.494,1.932c-0.084,0.595-0.147,1.123-0.098,1.539
			c0.044,0.423,0.154,0.746,0.257,0.96c0.13,0.2,0.199,0.306,0.199,0.306c0.029-0.006-0.514-0.256-0.844-1.175
			c-0.169-0.453-0.249-1.022-0.279-1.667c-0.039-0.649-0.003-1.389,0.148-2.189c0.134-0.805,0.429-1.661,0.879-2.515
			c0.488-0.823,1.105-1.692,1.978-2.32c0.214-0.158,0.417-0.346,0.65-0.482l0.713-0.397c0.47-0.303,1.002-0.433,1.522-0.623
			c1.049-0.317,2.253-0.513,3.217-0.542l0.765-0.034c0.385,0.01,0.572,0.033,0.867,0.049c0.539,0.052,1.075,0.033,1.607,0.164
			c1.068,0.159,2.096,0.503,3.042,0.94c0.942,0.455,1.788,1.044,2.453,1.733c0.167,0.171,0.331,0.339,0.493,0.505
			c0.143,0.182,0.279,0.365,0.408,0.547c0.276,0.352,0.472,0.734,0.666,1.093c0.387,0.719,0.604,1.432,0.767,2.057
			c0.151,0.631,0.215,1.188,0.247,1.645C52.965,35.274,52.876,35.787,52.876,35.787z"/>
	</g>
	<g id="NUAGE_SOLEIL" display="none">
		<path display="inline" fill="#FFFFFF" d="M33.819,30.478l4.28-3.373l4.196,0.219l2.579,1.113l6.69-1.75
			c0,0,2.65,0.191,2.813,0.219c0.163,0.029,3.547,1.375,3.547,1.375l1.13,1.29l-0.063,2.069l-0.893,1.106l-2.282,0.673l-3.281,0.177
			l-4.429-0.057l-6.322-0.155c0,0-3.373-0.249-3.529-0.249c-0.156,0-3.387-0.283-3.387-0.283l-1.148-0.354L33.819,30.478z"/>
		<path display="inline" fill="#8E8B92" d="M45.142,28.217c-0.491-0.131-0.997-0.226-1.481-0.298
			c-0.493-0.067-0.988-0.1-1.479-0.116c-0.491-0.012-0.981-0.004-1.466,0.047c-0.484,0.035-0.966,0.097-1.436,0.195
			c-0.472,0.086-0.932,0.22-1.378,0.364c-0.447,0.143-0.88,0.318-1.278,0.533c-0.4,0.21-0.778,0.454-1.085,0.739
			c-0.174,0.127-0.298,0.287-0.437,0.434c-0.143,0.145-0.218,0.323-0.337,0.475l0.067-0.138c-0.104,0.385-0.207,0.787-0.133,1.04
			c0.063,0.253,0.155,0.411,0.406,0.589c0.246,0.173,0.633,0.3,1.036,0.368c0.193,0.037,0.433,0.057,0.591,0.06l0.751-0.008
			c2.033,0.025,4.067,0.016,6.1,0.098c2.033,0.054,4.067,0.157,6.1,0.298c2.033,0.134,4.067,0.324,6.1,0.602
			c-2.033,0.279-4.067,0.468-6.1,0.602c-2.033,0.142-4.067,0.244-6.1,0.298c-2.033,0.082-4.067,0.073-6.1,0.098l-0.774-0.008
			c-0.351-0.014-0.618-0.049-0.923-0.108c-0.59-0.12-1.2-0.301-1.789-0.717c-0.59-0.394-1.1-1.155-1.164-1.916
			c-0.096-0.769,0.133-1.37,0.33-1.944l0.032-0.092l0.036-0.046c0.191-0.244,0.36-0.518,0.58-0.724
			c0.217-0.211,0.429-0.43,0.672-0.591c0.232-0.184,0.479-0.334,0.733-0.462c0.247-0.146,0.506-0.253,0.763-0.357
			c0.514-0.212,1.041-0.363,1.568-0.474c0.527-0.115,1.061-0.173,1.591-0.199c0.529-0.031,1.058-0.032,1.581,0.016
			c0.523,0.04,1.041,0.125,1.55,0.231c0.511,0.101,1.005,0.267,1.492,0.439C44.252,27.731,44.697,27.969,45.142,28.217z"/>
		<path display="inline" fill="#8E8B92" d="M55.929,33.502c0,0,0.094-0.023,0.271-0.067c0.182-0.037,0.424-0.129,0.723-0.247
			c0.302-0.112,0.64-0.316,0.976-0.562c0.331-0.255,0.635-0.61,0.778-1.01c0.138-0.404,0.101-0.834-0.093-1.296
			c-0.211-0.469-0.567-0.921-1.029-1.337c-0.378-0.328-0.97-0.64-1.565-0.849c-0.613-0.209-1.287-0.348-1.979-0.422
			c-0.691-0.084-1.403-0.101-2.104-0.087c-0.713,0.027-1.368,0.061-2.069,0.172c-0.713,0.109-1.36,0.179-1.984,0.296
			c-0.315,0.045-0.608,0.12-0.894,0.184c-0.291,0.056-0.571,0.116-0.825,0.203c-0.53,0.141-0.984,0.329-1.399,0.498
			c-0.401,0.185-0.725,0.399-1.023,0.551c-0.497,0.403-0.82,0.65-0.82,0.65s0.172-0.333,0.546-0.938
			c0.236-0.245,0.503-0.597,0.884-0.907c0.384-0.303,0.832-0.651,1.374-0.915c0.528-0.299,1.132-0.556,1.778-0.77
			c0.639-0.226,1.347-0.429,2.037-0.583c0.7-0.168,1.51-0.332,2.295-0.379c0.795-0.063,1.612-0.05,2.434,0.038
			c0.82,0.101,1.648,0.274,2.439,0.598c0.804,0.328,1.507,0.781,2.151,1.451c0.551,0.582,0.969,1.319,1.171,2.092
			c0.224,0.78,0.093,1.677-0.311,2.281c-0.389,0.62-0.942,0.948-1.414,1.141c-0.479,0.193-0.911,0.271-1.263,0.285
			c-0.35,0.028-0.632-0.004-0.806-0.031C56.025,33.516,55.929,33.502,55.929,33.502z"/>
	</g>
	<rect id="BARRE_ORAGE" x="17.062" y="46.776" fill="#FFFFFF" width="23.419" height="2.62"/>
	<rect id="BARRE_NIEGE" x="19.889" y="46.944" display="none" fill="#FFFFFF" width="12.505" height="2.454"/>
	<rect id="BARRE_2_GOUTTES_2_" x="19.889" y="46.944" display="none" fill="#FFFFFF" width="20.592" height="2.454"/>
	<rect id="BARRE_1_GOUTTE" x="19.889" y="46.776" display="none" fill="#FFFFFF" width="9.479" height="2.454"/>
	<polygon id="ECLAIR__x2B__BLANC_ORAGE" display="none" fill="#EA5813" stroke="#FFFFFF" stroke-width="0.5" points="37.051,57.139 
		46.33,48.778 44.093,44.115 62.842,35.209 50.815,45.495 53.135,49.777 	"/>
	<polygon id="ECLAIR_1_" fill="#EA5813" stroke="#FFFFFF" stroke-width="0.5" points="10.325,60.139 19.604,51.778 17.368,47.115 
		36.116,38.209 24.089,48.495 26.409,52.777 	"/>
	<path id="NEIGE" display="none" fill="#FFFFFF" stroke="#38286D" d="M16.257,49.086l0.086-0.243
		c0.668-1.885,2.553-1.218,2.553-1.218l1.806,0.64l-0.479-1.855c0,0-0.501-1.937,1.435-2.437l0.25-0.065
		c0,0,1.936-0.501,2.437,1.435l0.621,2.401l1.872-1.627c1.509-1.312,2.821,0.198,2.821,0.198l0.17,0.195
		c1.312,1.509-0.198,2.821-0.198,2.821l-1.713,1.489l2.14,0.758c1.885,0.668,1.218,2.553,1.218,2.553l-0.087,0.243
		c-0.667,1.885-2.552,1.218-2.552,1.218l-1.807-0.64l0.48,1.855c0,0,0.501,1.937-1.436,2.437l-0.25,0.065
		c0,0-1.936,0.501-2.437-1.435l-0.621-2.401L20.695,57.1c-1.51,1.312-2.822-0.198-2.822-0.198l-0.169-0.195
		c-1.312-1.509,0.197-2.821,0.197-2.821l1.713-1.489l-2.139-0.758C15.589,50.971,16.257,49.086,16.257,49.086z"/>
	<path id="NEIGE__x2B__GOUTTE_1" display="none" fill="#FFFFFF" stroke="#38286D" d="M31.257,42.086l0.086-0.243
		c0.668-1.885,2.553-1.218,2.553-1.218l1.806,0.64l-0.479-1.855c0,0-0.501-1.937,1.435-2.437l0.25-0.065
		c0,0,1.936-0.501,2.437,1.435l0.621,2.401l1.872-1.627c1.509-1.312,2.821,0.198,2.821,0.198l0.17,0.195
		c1.312,1.509-0.198,2.821-0.198,2.821l-1.713,1.489l2.14,0.758c1.885,0.668,1.218,2.553,1.218,2.553l-0.087,0.243
		c-0.667,1.885-2.552,1.218-2.552,1.218l-1.807-0.64l0.48,1.855c0,0,0.501,1.937-1.436,2.437l-0.25,0.065
		c0,0-1.936,0.501-2.437-1.435l-0.621-2.401L35.695,50.1c-1.51,1.312-2.822-0.198-2.822-0.198l-0.169-0.195
		c-1.312-1.509,0.197-2.821,0.197-2.821l1.713-1.489l-2.139-0.758C30.589,43.971,31.257,42.086,31.257,42.086z"/>
	<g id="GOUTTE_1" display="none">
		<path display="inline" fill="#38286D" d="M27.893,54.685l-0.196-10.351l-8.186,5.859l0.016,0.008
			c-0.676,0.408-1.257,0.963-1.646,1.689c-1.264,2.356-0.162,5.407,2.458,6.812c2.621,1.402,5.769,0.627,7.031-1.727
			c0.389-0.726,0.529-1.517,0.495-2.305L27.893,54.685z"/>
		<path display="inline" fill="#0095DB" d="M18.126,53.41c-0.332,1.833,0.639,3.833,2.539,4.851c2.306,1.234,5.076,0.553,6.187-1.52
			c0.342-0.638,0.466-1.334,0.435-2.028l0.025,0.014l-0.026-1.396c0.015,0.661-0.108,1.321-0.434,1.929
			c-1.111,2.072-3.881,2.754-6.187,1.52C19.273,56.034,18.38,54.758,18.126,53.41"/>
		<path display="inline" fill="#FFFFFF" d="M20.27,52.449c0.121-0.39,0.065-0.771-0.12-1.031c-0.065-0.041-0.136-0.073-0.215-0.091
			c-0.487-0.117-1.031,0.265-1.214,0.853c-0.151,0.488-0.007,0.962,0.323,1.177C19.541,53.447,20.083,53.05,20.27,52.449"/>
	</g>
	<g id="GOUTTE_2">
		<path fill="#38286D" d="M40.758,47.668l-0.196-10.351l-8.186,5.859l0.016,0.008c-0.676,0.408-1.257,0.963-1.646,1.689
			c-1.264,2.356-0.162,5.407,2.458,6.812c2.621,1.402,5.769,0.627,7.031-1.727c0.389-0.726,0.529-1.517,0.495-2.305L40.758,47.668z"
			/>
		<path fill="#0095DB" d="M30.991,46.393c-0.332,1.833,0.639,3.833,2.539,4.851c2.306,1.234,5.076,0.553,6.187-1.52
			c0.342-0.638,0.466-1.334,0.435-2.028l0.025,0.014l-0.026-1.396c0.015,0.661-0.108,1.321-0.434,1.929
			c-1.111,2.072-3.881,2.754-6.187,1.52C32.138,49.017,31.245,47.741,30.991,46.393"/>
		<path fill="#FFFFFF" d="M33.135,45.432c0.121-0.39,0.065-0.771-0.12-1.031c-0.065-0.041-0.136-0.073-0.215-0.091
			c-0.487-0.117-1.031,0.265-1.214,0.853c-0.151,0.488-0.007,0.962,0.323,1.177C32.406,46.43,32.948,46.033,33.135,45.432"/>
	</g>
	<g display="none">
		<path display="inline" d="M49.245,58.074h-1.233v-5.318h1.233V58.074z"/>
		<path display="inline" d="M54.328,56.156c0,0.632-0.184,1.129-0.552,1.492s-0.885,0.545-1.551,0.545
			c-0.665,0-1.182-0.182-1.55-0.545s-0.552-0.86-0.552-1.492c0-0.635,0.186-1.135,0.556-1.496c0.37-0.363,0.886-0.544,1.546-0.544
			c0.67,0,1.188,0.183,1.554,0.547C54.146,55.027,54.328,55.525,54.328,56.156z M52.813,57.09c0.08-0.098,0.14-0.216,0.18-0.354
			s0.061-0.329,0.061-0.572c0-0.227-0.021-0.415-0.062-0.568c-0.041-0.152-0.098-0.274-0.17-0.365
			c-0.073-0.094-0.161-0.159-0.264-0.198s-0.213-0.058-0.332-0.058c-0.118,0-0.224,0.016-0.315,0.047
			c-0.093,0.032-0.181,0.096-0.265,0.191c-0.076,0.09-0.136,0.211-0.18,0.366c-0.045,0.155-0.066,0.35-0.066,0.585
			c0,0.209,0.019,0.391,0.058,0.545c0.039,0.153,0.096,0.277,0.171,0.371c0.073,0.088,0.16,0.153,0.262,0.194
			s0.217,0.062,0.347,0.062c0.111,0,0.218-0.019,0.319-0.057C52.657,57.242,52.743,57.179,52.813,57.09z"/>
		<path display="inline" d="M57.209,58.177c-0.334,0-0.641-0.04-0.917-0.12c-0.277-0.079-0.519-0.202-0.724-0.369
			c-0.202-0.166-0.359-0.375-0.471-0.629c-0.112-0.252-0.168-0.549-0.168-0.889c0-0.357,0.06-0.666,0.18-0.926
			c0.119-0.26,0.286-0.475,0.5-0.646c0.208-0.161,0.447-0.279,0.719-0.355c0.271-0.074,0.552-0.112,0.844-0.112
			c0.262,0,0.504,0.028,0.725,0.085c0.221,0.058,0.428,0.132,0.619,0.223v1.049h-0.175c-0.048-0.041-0.105-0.088-0.172-0.143
			c-0.067-0.055-0.149-0.108-0.248-0.161c-0.093-0.05-0.195-0.092-0.307-0.125s-0.241-0.05-0.39-0.05
			c-0.327,0-0.579,0.104-0.756,0.313c-0.176,0.208-0.264,0.491-0.264,0.849c0,0.369,0.09,0.65,0.271,0.842
			c0.182,0.191,0.438,0.287,0.77,0.287c0.155,0,0.295-0.019,0.419-0.054c0.123-0.035,0.227-0.077,0.309-0.124
			c0.077-0.046,0.146-0.094,0.204-0.145c0.06-0.05,0.114-0.099,0.164-0.146h0.175v1.049c-0.194,0.092-0.396,0.164-0.607,0.218
			S57.465,58.177,57.209,58.177z"/>
		<path display="inline" d="M60.651,58.074h-1.279V56.73h1.279V58.074z"/>
	</g>
</g>
</svg>
