<?xml version="1.0" encoding="utf-8"?>
<!-- Generator: Adobe Illustrator 17.0.0, SVG Export Plug-In . SVG Version: 6.00 Build 0)  -->
<!DOCTYPE svg PUBLIC "-//W3C//DTD SVG 1.1 Tiny//EN" "http://www.w3.org/Graphics/SVG/1.1/DTD/svg11-tiny.dtd">
<svg version="1.1" baseProfile="tiny" id="Calque_1"
	 xmlns="http://www.w3.org/2000/svg" xmlns:xlink="http://www.w3.org/1999/xlink" x="0px" y="0px" width="65.2px" height="65.2px"
	 viewBox="0 0 65.2 65.2" xml:space="preserve">
<g>
</g>
<g>
</g>
<g display="none">
	<circle display="inline" fill="#F8CC24" cx="27.646" cy="29.542" r="11.706"/>
	<path display="inline" fill="#F8CC24" d="M29.242,14.691c0,0.882-0.715,1.596-1.596,1.596l0,0c-0.882,0-1.596-0.715-1.596-1.596
		V7.242c0-0.882,0.715-1.596,1.596-1.596l0,0c0.882,0,1.596,0.715,1.596,1.596V14.691z"/>
	<path fill="#F8CC24" d="M29.242,51.841c0,0.882-0.715,1.596-1.596,1.596l0,0c-0.882,0-1.596-0.715-1.596-1.596v-7.449
		c0-0.882,0.715-1.596,1.596-1.596l0,0c0.882,0,1.596,0.715,1.596,1.596V51.841z"/>
	<path display="inline" fill="#F8CC24" d="M42.496,31.138c-0.882,0-1.596-0.715-1.596-1.596l0,0c0-0.882,0.715-1.596,1.596-1.596
		h7.449c0.882,0,1.596,0.715,1.596,1.596l0,0c0,0.882-0.715,1.596-1.596,1.596H42.496z"/>
	<path display="inline" fill="#F8CC24" d="M5.346,31.138c-0.882,0-1.596-0.715-1.596-1.596l0,0c0-0.882,0.715-1.596,1.596-1.596
		h7.449c0.882,0,1.596,0.715,1.596,1.596l0,0c0,0.882-0.715,1.596-1.596,1.596H5.346z"/>
	<path display="inline" fill="#F8CC24" d="M36.063,17.203c-0.416,0.777-1.384,1.07-2.161,0.654l0,0
		c-0.777-0.416-1.07-1.384-0.654-2.161l3.516-6.567c0.416-0.777,1.384-1.07,2.161-0.654l0,0c0.777,0.416,1.07,1.384,0.654,2.161
		L36.063,17.203z"/>
	<path fill="#F8CC24" d="M18.527,49.954c-0.416,0.777-1.384,1.07-2.161,0.654l0,0c-0.777-0.416-1.07-1.384-0.654-2.161l3.516-6.567
		c0.416-0.777,1.384-1.07,2.161-0.654l0,0c0.777,0.416,1.07,1.384,0.654,2.161L18.527,49.954z"/>
	<path display="inline" fill="#F8CC24" d="M39.984,37.959c-0.777-0.416-1.07-1.384-0.654-2.161l0,0
		c0.416-0.777,1.384-1.07,2.161-0.654l6.567,3.516c0.777,0.416,1.07,1.384,0.654,2.161l0,0c-0.416,0.777-1.384,1.07-2.161,0.654
		L39.984,37.959z"/>
	<path display="inline" fill="#F8CC24" d="M7.233,20.423c-0.777-0.416-1.07-1.384-0.654-2.161l0,0
		c0.416-0.777,1.384-1.07,2.161-0.654l6.567,3.516c0.777,0.416,1.07,1.384,0.654,2.161l0,0c-0.416,0.777-1.384,1.07-2.161,0.654
		L7.233,20.423z"/>
	<path display="inline" fill="#F8CC24" d="M41.176,23.218c-0.754,0.457-1.736,0.215-2.192-0.539l0,0
		c-0.457-0.754-0.215-1.736,0.539-2.192l6.373-3.857c0.754-0.457,1.736-0.215,2.192,0.539l0,0c0.457,0.754,0.215,1.736-0.539,2.192
		L41.176,23.218z"/>
	<path display="inline" fill="#F8CC24" d="M9.395,42.454c-0.754,0.457-1.736,0.215-2.192-0.539l0,0
		c-0.457-0.754-0.215-1.736,0.539-2.192l6.373-3.857c0.754-0.457,1.736-0.215,2.192,0.539l0,0c0.457,0.754,0.215,1.736-0.539,2.192
		L9.395,42.454z"/>
	<path fill="#F8CC24" d="M33.97,43.072c-0.457-0.754-0.215-1.736,0.539-2.192l0,0c0.754-0.457,1.736-0.215,2.192,0.539l3.857,6.373
		c0.457,0.754,0.215,1.736-0.539,2.192l0,0c-0.754,0.457-1.736,0.215-2.192-0.539L33.97,43.072z"/>
	<path display="inline" fill="#F8CC24" d="M14.733,11.291c-0.457-0.754-0.215-1.736,0.539-2.192l0,0
		c0.754-0.457,1.736-0.215,2.192,0.539l3.857,6.373c0.457,0.754,0.215,1.736-0.539,2.192l0,0c-0.754,0.457-1.736,0.215-2.192-0.539
		L14.733,11.291z"/>
</g>
<g id="LUNE_2_">
	<g>
		<circle fill="#706F6F" cx="23.203" cy="22.524" r="11.068"/>
		<path fill="#706F6F" d="M23.203,34.092c-6.378,0-11.568-5.189-11.568-11.567s5.189-11.568,11.568-11.568
			s11.567,5.189,11.567,11.568S29.582,34.092,23.203,34.092z M23.203,11.957c-5.827,0-10.568,4.741-10.568,10.568
			c0,5.827,4.741,10.567,10.568,10.567c5.827,0,10.567-4.741,10.567-10.567C33.771,16.697,29.03,11.957,23.203,11.957z"/>
	</g>
	<g>
		<path fill="#EDEDED" d="M20.58,18.885c0-2.759,1.026-5.271,2.708-7.197c-0.065-0.001-0.129-0.01-0.195-0.01
			c-6.051,0-10.957,4.906-10.957,10.957s4.906,10.957,10.957,10.957c3.291,0,6.235-1.458,8.243-3.754
			C25.377,29.731,20.58,24.87,20.58,18.885z"/>
		<path fill="#706F6F" d="M23.093,34.092c-6.317,0-11.457-5.14-11.457-11.457s5.14-11.457,11.457-11.457
			c0.047,0,0.093,0.003,0.139,0.006l1.001,0.072l-0.569,0.761c-1.667,1.908-2.585,4.347-2.585,6.868
			c0,5.663,4.605,10.352,10.266,10.453l1.076,0.02l-0.708,0.81C29.531,32.661,26.39,34.092,23.093,34.092z M22.228,12.222
			c-5.393,0.465-9.591,4.958-9.591,10.413c0,5.766,4.691,10.457,10.457,10.457c2.657,0,5.205-1.02,7.136-2.827
			c-5.688-0.656-10.149-5.546-10.149-11.38C20.08,16.489,20.836,14.161,22.228,12.222z"/>
	</g>
	<g>
		<polygon fill="#FFFFFF" points="8.591,25.278 9.31,29.64 13.672,30.359 9.31,31.078 8.591,35.44 7.872,31.078 3.51,30.359 
			7.872,29.64 		"/>
		<path fill="#706F6F" d="M8.591,36.979l-0.936-5.684l-5.684-0.936l5.684-0.936l0.936-5.684l0.936,5.684l5.684,0.936l-5.684,0.936
			L8.591,36.979z M5.047,30.359L8.09,30.86l0.501,3.042l0.501-3.042l3.042-0.501l-3.042-0.501l-0.501-3.042L8.09,29.858
			L5.047,30.359z"/>
	</g>
</g>
<g id="LUNE" display="none">
	<g id="LUNE_1_" display="inline">
		<path fill="#EDEDED" stroke="#706F6F" stroke-miterlimit="10" d="M17.159,11.085c0-2.297,0.855-4.39,2.255-5.994
			c-0.055-0.001-0.107-0.008-0.162-0.008c-5.04,0-9.125,4.085-9.125,9.125s4.085,9.125,9.125,9.125c2.74,0,5.192-1.214,6.865-3.127
			C21.154,20.118,17.159,16.069,17.159,11.085z"/>
		<polygon fill="#FFFFFF" stroke="#706F6F" stroke-width="0.5" stroke-miterlimit="10" points="8.485,20.183 9.14,24.156 
			13.112,24.81 9.14,25.464 8.485,29.437 7.831,25.464 3.859,24.81 7.831,24.156 		"/>
	</g>
</g>
<g id="GRIS">
	<g>
		<path fill="#737176" d="M54.757,26.736c0,0,0-10.161-11.561-10.161c-11.622,0-10.587,10.161-10.587,10.161s-8.762,0-8.762,7.727
			c0,7.728,7.728,7.728,7.728,7.728h23.182c0,0,7.727,0,7.727-7.728C62.484,26.736,54.757,26.736,54.757,26.736
			s-6.857-0.788-7.727,3.901"/>
	</g>
	<g>
		<path fill="#272824" d="M54.757,43.191H31.575c-3.019,0-8.728-1.824-8.728-8.729c0-6.903,6.385-8.727,9.762-8.727l0.002,2
			c-0.317,0.001-7.764,0.106-7.764,6.727c0,6.614,6.456,6.727,6.731,6.729h23.179c0.272-0.002,6.727-0.114,6.727-6.729
			c0-6.65-6.452-6.727-6.727-6.727l-0.112-0.006c-0.062-0.005-5.943-0.622-6.632,3.09l-1.967-0.365
			c0.817-4.404,6.062-5.013,8.769-4.718c3.033,0.023,8.669,1.868,8.669,8.727C63.483,41.367,57.775,43.191,54.757,43.191z"/>
	</g>
	<g>
		<path fill="#272824" d="M32.922,29.457c-1.059-0.945-1.143-2.511-1.148-2.687c-0.014-0.12-0.427-4.541,2.541-7.826
			c2.02-2.236,5.062-3.369,9.045-3.369c3.946,0,7.052,1.123,9.231,3.337c3.202,3.255,3.169,7.654,3.166,7.84l-2-0.029
			c0-0.038,0.01-3.778-2.607-6.423c-1.789-1.808-4.41-2.725-7.79-2.725c-3.393,0-5.937,0.912-7.561,2.709
			c-2.379,2.634-2.035,6.313-2.031,6.35c0.015,0.289,0.126,1.009,0.485,1.33L32.922,29.457z"/>
	</g>
</g>
<g id="BLANC">
	<g>
		<path fill="#FFFFFF" d="M41.05,33.302c0,0,0-10.161-11.561-10.161c-11.622,0-10.587,10.161-10.587,10.161s-8.762,0-8.762,7.727
			c0,7.728,7.728,7.728,7.728,7.728H41.05c0,0,7.727,0,7.727-7.728C48.777,33.302,41.05,33.302,41.05,33.302
			s-6.857-0.788-7.727,3.901"/>
	</g>
	<g>
		<path fill="#272824" d="M41.05,49.757H17.868c-3.019,0-8.728-1.824-8.728-8.728s6.386-8.727,9.762-8.727l0.002,2
			c-0.317,0.002-7.764,0.106-7.764,6.728c0,6.651,6.453,6.728,6.728,6.728H41.05c0.272-0.002,6.727-0.114,6.727-6.728
			s-6.454-6.726-6.729-6.728l-0.109-0.006c-0.062-0.007-5.942-0.624-6.632,3.09l-1.966-0.365c0.817-4.404,6.055-5.014,8.768-4.718
			c3.033,0.023,8.669,1.868,8.669,8.727C49.776,47.933,44.068,49.757,41.05,49.757z"/>
	</g>
	<g>
		<path fill="#272824" d="M19.063,36.023c-1.06-0.944-1.143-2.512-1.149-2.687c-0.014-0.12-0.427-4.541,2.541-7.826
			c2.02-2.235,5.063-3.369,9.045-3.369c12.417,0,12.561,11.049,12.561,11.161h-2h1l-1,0.003c-0.002-0.375-0.17-9.164-10.561-9.164
			c-3.384,0-5.924,0.907-7.548,2.696c-2.375,2.614-2.047,6.33-2.043,6.367c0.015,0.286,0.125,1.006,0.485,1.328L19.063,36.023z"/>
	</g>
</g>
<g id="BARRE_NIEGE">
	<rect x="20.244" y="47.343" fill="#FFFFFF" width="12.505" height="2.454"/>
</g>
<g id="NEIGE">
	<path fill="#FFFFFF" d="M16.612,49.484l0.086-0.243c0.668-1.885,2.553-1.218,2.553-1.218l1.806,0.64l-0.479-1.855
		c0,0-0.501-1.937,1.435-2.437l0.25-0.065c0,0,1.936-0.501,2.437,1.435l0.621,2.401l1.872-1.627
		c1.509-1.312,2.821,0.198,2.821,0.198l0.17,0.195c1.312,1.509-0.198,2.821-0.198,2.821l-1.713,1.489l2.14,0.758
		c1.885,0.668,1.218,2.553,1.218,2.553l-0.087,0.243c-0.667,1.885-2.552,1.218-2.552,1.218l-1.807-0.64l0.48,1.855
		c0,0,0.501,1.937-1.436,2.437l-0.25,0.065c0,0-1.936,0.501-2.437-1.435l-0.621-2.401l-1.871,1.627
		c-1.51,1.312-2.822-0.198-2.822-0.198l-0.169-0.195c-1.312-1.509,0.197-2.821,0.197-2.821l1.713-1.489l-2.139-0.758
		C15.944,51.369,16.612,49.484,16.612,49.484z"/>
	<path fill="#38286D" d="M25.438,60.266c-1.205,0-2.072-0.681-2.379-1.868l-0.419-1.619l-1.261,1.097
		c-0.503,0.438-1.046,0.659-1.614,0.659c-1.113,0-1.881-0.869-1.913-0.906l-0.169-0.194c-0.66-0.759-0.83-1.646-0.479-2.496
		c0.251-0.607,0.677-0.989,0.725-1.03l1.066-0.927l-1.331-0.472c-0.948-0.336-1.532-1.023-1.645-1.938
		c-0.081-0.652,0.102-1.194,0.123-1.254l0.086-0.243c0.38-1.074,1.188-1.665,2.274-1.665c0.498,0,0.876,0.128,0.917,0.143
		l0.919,0.326l-0.244-0.944c-0.016-0.062-0.151-0.617-0.014-1.261c0.192-0.9,0.834-1.534,1.808-1.786l0.25-0.064
		c0.029-0.007,0.297-0.074,0.667-0.074c1.205,0,2.072,0.681,2.379,1.868l0.419,1.619l1.262-1.097
		c0.502-0.438,1.046-0.659,1.614-0.659c1.112,0,1.88,0.868,1.912,0.905l0.17,0.195c0.66,0.759,0.829,1.645,0.478,2.495
		c-0.251,0.608-0.677,0.99-0.725,1.031l-1.066,0.927l1.332,0.472c1.864,0.661,1.811,2.376,1.522,3.191l-0.087,0.244
		c-0.379,1.073-1.187,1.664-2.272,1.664c-0.498,0-0.876-0.128-0.917-0.143l-0.92-0.326l0.245,0.944
		c0.016,0.062,0.151,0.617,0.014,1.261c-0.193,0.9-0.835,1.534-1.809,1.786l-0.25,0.064C26.075,60.198,25.807,60.266,25.438,60.266z
		 M23.203,54.964l0.823,3.184c0.195,0.752,0.656,1.118,1.411,1.118c0.242,0,0.417-0.043,0.419-0.043l0.248-0.064
		c0.613-0.158,0.967-0.494,1.081-1.026c0.088-0.413-0.002-0.798-0.003-0.802l-0.716-2.765l2.694,0.953c0,0,0.255,0.086,0.583,0.086
		c0.657,0,1.092-0.326,1.331-0.999l0.087-0.244c0.08-0.233,0.416-1.442-0.915-1.913l-2.948-1.046l2.36-2.05
		c0.186-0.165,1.074-1.052,0.148-2.116l-0.17-0.195c-0.003-0.004-0.507-0.562-1.157-0.562c-0.32,0-0.643,0.139-0.958,0.413
		L25.04,49.05l-0.823-3.184c-0.195-0.752-0.656-1.118-1.411-1.118c-0.242,0-0.417,0.043-0.419,0.043l-0.248,0.064
		c-0.613,0.158-0.966,0.494-1.08,1.026c-0.088,0.413,0.002,0.798,0.003,0.802l0.714,2.765l-2.692-0.953l0,0
		c0,0-0.256-0.086-0.583-0.086c-0.658,0-1.093,0.326-1.332,0.999l-0.086,0.243c-0.08,0.234-0.417,1.443,0.914,1.914l2.947,1.044
		l-2.36,2.052c-0.186,0.165-1.074,1.051-0.148,2.116l0.169,0.194c0.004,0.004,0.507,0.562,1.159,0.562
		c0.32,0,0.643-0.14,0.958-0.413L23.203,54.964z"/>
</g>
<g>
</g>
</svg>
