<?xml version="1.0" encoding="utf-8"?>
<!-- Generator: Adobe Illustrator 17.0.0, SVG Export Plug-In . SVG Version: 6.00 Build 0)  -->
<!DOCTYPE svg PUBLIC "-//W3C//DTD SVG 1.1 Tiny//EN" "http://www.w3.org/Graphics/SVG/1.1/DTD/svg11-tiny.dtd">
<svg version="1.1" baseProfile="tiny" id="Calque_1"
	 xmlns="http://www.w3.org/2000/svg" xmlns:xlink="http://www.w3.org/1999/xlink" x="0px" y="0px" width="65.2px" height="65.2px"
	 viewBox="0 0 65.2 65.2" xml:space="preserve">
<g>
	<g>
		<path fill="#FAD200" d="M7.185,29.82c0,0,12.778-1.262-1.336-8.653c0-0.045,15.227,5.076,6.411-5.655
			c0,0,10.374,9.247,5.744-6.396c1.425,2.345,7.257,12.763,8.682,0.341c0.846,3.384,1.736,12.052,8.682-0.341
			c-0.801,4.615-3.428,13.876,5.922,6.218c-1.647,2.315-8.059,10.33,6.233,5.788c-3.606,2.36-12.155,7.005-1.425,8.578
			c-2.226,0.594-11.309,2.063,1.425,8.741c-5.031-0.801-13.446-3.384-6.456,5.61c-2.894-1.736-9.395-7.494-5.699,6.471
			c-2.538-3.666-6.782-12.081-8.511-0.282c-0.438-1.603-1.863-12.748-8.898,0.282c0.668-3.622,4.185-13.773-5.699-6.516
			c1.158-1.781,8.148-9.395-6.411-5.565C7.185,37.641,19.206,31.571,7.185,29.82z"/>
	</g>
	<g id="GRIS">
		<g>
			<path fill="#FFFFFF" d="M54.758,26.72c0,0,0-10.161-11.561-10.161c-11.622,0-10.587,10.161-10.587,10.161s-8.762,0-8.762,7.727
				c0,7.728,7.728,7.728,7.728,7.728h23.182c0,0,7.727,0,7.727-7.728C62.485,26.72,54.758,26.72,54.758,26.72
				s-6.857-0.788-7.727,3.901"/>
		</g>
		<g>
			<path fill="#8E8B92" d="M54.758,43.175H31.576c-3.019,0-8.728-1.824-8.728-8.728s6.386-8.727,9.762-8.727
				c0.552,0,0.998,0.447,0.999,0.998c0.001,0.552-0.446,1-0.997,1.002c-0.317,0.001-7.764,0.106-7.764,6.727
				c0,6.651,6.453,6.728,6.728,6.728h23.182c0.272-0.002,6.728-0.114,6.728-6.728c0-6.65-6.453-6.727-6.728-6.727l-0.112-0.006
				c-0.062-0.007-5.943-0.623-6.631,3.09c-0.102,0.542-0.626,0.898-1.166,0.801c-0.543-0.101-0.901-0.623-0.801-1.166
				c0.818-4.404,6.062-5.013,8.768-4.718c3.033,0.023,8.67,1.868,8.67,8.727C63.485,41.351,57.776,43.175,54.758,43.175z"/>
		</g>
		<g>
			<path fill="#8E8B92" d="M33.588,29.695c-0.237,0-0.475-0.083-0.666-0.254c-1.059-0.945-1.142-2.511-1.148-2.687
				c-0.014-0.12-0.427-4.541,2.542-7.826c2.02-2.235,5.062-3.369,9.045-3.369c3.946,0,7.052,1.123,9.23,3.337
				c3.203,3.255,3.169,7.654,3.166,7.84c-0.009,0.547-0.455,0.984-1,0.984c-0.005,0-0.011,0-0.017,0
				c-0.551-0.009-0.991-0.462-0.983-1.014c0.001-0.043,0.008-3.78-2.606-6.423c-1.789-1.808-4.41-2.725-7.79-2.725
				c-3.384,0-5.924,0.907-7.549,2.696c-2.374,2.614-2.046,6.33-2.043,6.367c0.015,0.286,0.125,1.006,0.485,1.327
				c0.412,0.368,0.448,1,0.08,1.412C34.138,29.582,33.864,29.695,33.588,29.695z"/>
		</g>
	</g>
	<g>
	</g>
	<g>
	</g>
</g>
<g>
</g>
<g>
</g>
</svg>
