<?xml version="1.0" encoding="utf-8"?>
<!-- Generator: Adobe Illustrator 17.0.0, SVG Export Plug-In . SVG Version: 6.00 Build 0)  -->
<!DOCTYPE svg PUBLIC "-//W3C//DTD SVG 1.1 Tiny//EN" "http://www.w3.org/Graphics/SVG/1.1/DTD/svg11-tiny.dtd">
<svg version="1.1" baseProfile="tiny" id="Calque_1"
	 xmlns="http://www.w3.org/2000/svg" xmlns:xlink="http://www.w3.org/1999/xlink" x="0px" y="0px" width="65.2px" height="65.2px"
	 viewBox="0 0 65.2 65.2" xml:space="preserve">
<g id="ENSEMBLE">
	<g>
		<g id="GRIS">
			<g>
				<path fill="#737176" d="M54.758,26.749c0,0,0-10.161-11.561-10.161c-11.622,0-10.587,10.161-10.587,10.161s-8.762,0-8.762,7.727
					c0,7.728,7.728,7.728,7.728,7.728h23.182c0,0,7.727,0,7.727-7.728C62.485,26.749,54.758,26.749,54.758,26.749
					s-6.857-0.788-7.727,3.901"/>
			</g>
			<g>
				<path fill="#272824" d="M54.758,43.204H31.576c-3.019,0-8.728-1.824-8.728-8.728s6.386-8.728,9.762-8.728l0.002,2
					c-0.317,0.001-7.764,0.106-7.764,6.728c0,6.651,6.453,6.728,6.728,6.728h23.182c0.272-0.002,6.728-0.114,6.728-6.728
					c0-6.651-6.453-6.728-6.728-6.728l-0.112-0.006c-0.062-0.008-5.943-0.622-6.631,3.09l-1.967-0.365
					c0.818-4.405,6.062-5.013,8.768-4.719c3.033,0.023,8.67,1.868,8.67,8.728C63.485,41.38,57.776,43.204,54.758,43.204z"/>
			</g>
			<g>
				<path fill="#272824" d="M32.923,29.47c-1.059-0.945-1.142-2.512-1.148-2.687c-0.014-0.12-0.427-4.54,2.542-7.826
					c2.019-2.235,5.062-3.369,9.045-3.369c3.946,0,7.052,1.123,9.23,3.337c3.203,3.255,3.169,7.654,3.166,7.839l-2-0.032l1,0.016
					l-1-0.014c0.001-0.037,0.01-3.777-2.606-6.422c-1.789-1.808-4.41-2.725-7.79-2.725c-3.393,0-5.938,0.912-7.562,2.71
					c-2.378,2.633-2.034,6.312-2.031,6.349c0.015,0.289,0.126,1.01,0.486,1.331L32.923,29.47z"/>
			</g>
		</g>
		<g id="BLANC">
			<g>
				<path fill="#FFFFFF" d="M41.051,33.315c0,0,0-10.161-11.561-10.161c-11.622,0-10.587,10.161-10.587,10.161s-8.762,0-8.762,7.727
					c0,7.728,7.728,7.728,7.728,7.728h23.182c0,0,7.727,0,7.727-7.728C48.778,33.315,41.051,33.315,41.051,33.315
					s-6.857-0.788-7.727,3.901"/>
			</g>
			<g>
				<path fill="#272824" d="M41.052,49.771H17.869c-3.019,0-8.728-1.824-8.728-8.729c0-6.903,6.386-8.727,9.762-8.727l0.002,2
					c-0.317,0.002-7.764,0.106-7.764,6.728c0,6.614,6.456,6.727,6.731,6.729h23.18c0.272-0.002,6.727-0.114,6.727-6.729
					c0-6.613-6.454-6.726-6.729-6.728l-0.109-0.006c-0.062-0.008-5.944-0.623-6.632,3.09l-1.967-0.365
					c0.817-4.404,6.058-5.016,8.769-4.718c3.033,0.023,8.669,1.868,8.669,8.727C49.778,47.946,44.07,49.771,41.052,49.771z"/>
			</g>
			<g>
				<path fill="#272824" d="M19.064,36.036c-1.06-0.944-1.143-2.512-1.149-2.687c-0.014-0.12-0.427-4.54,2.542-7.826
					c2.02-2.235,5.063-3.369,9.045-3.369c12.417,0,12.561,11.049,12.561,11.161h-2h1l-1,0.003c-0.002-0.375-0.17-9.164-10.561-9.164
					c-3.393,0-5.937,0.912-7.562,2.71c-2.379,2.633-2.035,6.312-2.031,6.35c0.015,0.288,0.126,1.009,0.486,1.33L19.064,36.036z"/>
			</g>
		</g>
		<g id="BARRE_1_GOUTTE">
			<rect x="20.246" y="47.188" fill="#FFFFFF" width="9.479" height="2.631"/>
		</g>
		<g id="GOUTTE_1">
			<g>
				<path fill="#38286D" d="M28.249,55.096l-0.196-10.351l-8.186,5.859l0.016,0.008c-0.676,0.408-1.257,0.963-1.646,1.689
					c-1.264,2.356-0.162,5.407,2.458,6.812c2.621,1.402,5.769,0.627,7.031-1.727c0.389-0.726,0.529-1.517,0.495-2.305L28.249,55.096
					z"/>
			</g>
			<g>
				<path fill="#0095DB" d="M18.483,53.821c-0.332,1.833,0.639,3.833,2.539,4.851c2.306,1.234,5.076,0.553,6.187-1.52
					c0.342-0.638,0.466-1.334,0.435-2.028l0.025,0.014l-0.026-1.396c0.015,0.661-0.108,1.321-0.434,1.929
					c-1.111,2.072-3.881,2.754-6.187,1.52C19.63,56.445,18.737,55.169,18.483,53.821"/>
			</g>
			<g>
				<path fill="#FFFFFF" d="M20.626,52.861c0.121-0.39,0.065-0.771-0.12-1.031c-0.065-0.041-0.136-0.073-0.215-0.091
					c-0.487-0.117-1.031,0.265-1.214,0.853c-0.151,0.488-0.007,0.962,0.323,1.177C19.897,53.859,20.439,53.462,20.626,52.861"/>
			</g>
		</g>
	</g>
</g>
<g>
</g>
<g>
</g>
</svg>
