<?xml version="1.0" encoding="utf-8"?>
<!-- Generator: Adobe Illustrator 17.0.0, SVG Export Plug-In . SVG Version: 6.00 Build 0)  -->
<!DOCTYPE svg PUBLIC "-//W3C//DTD SVG 1.1 Tiny//EN" "http://www.w3.org/Graphics/SVG/1.1/DTD/svg11-tiny.dtd">
<svg version="1.1" baseProfile="tiny" id="Calque_1"
	 xmlns="http://www.w3.org/2000/svg" xmlns:xlink="http://www.w3.org/1999/xlink" x="0px" y="0px" width="65.2px" height="65.2px"
	 viewBox="0 0 65.2 65.2" xml:space="preserve">
<g>
	<g>
		<path fill="#FAD200" d="M4.851,30.882c0,0,12.778-1.262-1.336-8.653c0-0.045,15.227,5.076,6.411-5.655
			c0,0,10.374,9.247,5.744-6.396c1.425,2.345,7.257,12.763,8.682,0.341c0.846,3.384,1.736,12.052,8.682-0.341
			c-0.801,4.615-3.428,13.876,5.922,6.218c-1.647,2.315-8.059,10.33,6.233,5.788c-3.606,2.36-12.155,7.005-1.425,8.578
			c-2.226,0.594-11.309,2.063,1.425,8.741c-5.031-0.801-13.446-3.384-6.456,5.61c-2.894-1.736-10.233-14.524-6.538-0.559
			c-2.538-3.666-6.782-12.081-8.511-0.282c-0.438-1.603-1.863-12.748-8.898,0.282c0.668-3.622,6.364-7.727-3.52-0.47
			c1.158-1.781,6.807-8.41-7.752-4.581C4.851,38.703,16.872,32.634,4.851,30.882z"/>
	</g>
	<g id="GRIS">
		<g>
			<path fill="#737176" d="M54.758,26.628c0,0,0-10.161-11.561-10.161c-11.622,0-10.587,10.161-10.587,10.161s-8.762,0-8.762,7.727
				c0,7.728,7.728,7.728,7.728,7.728h23.182c0,0,7.727,0,7.727-7.728C62.485,26.628,54.758,26.628,54.758,26.628
				s-6.857-0.788-7.727,3.901"/>
		</g>
		<g>
			<path fill="#272824" d="M54.758,43.083H31.576c-3.019,0-8.728-1.824-8.728-8.729c0-6.903,6.386-8.727,9.762-8.727l0.002,2
				c-0.317,0.001-7.764,0.106-7.764,6.727c0,6.614,6.456,6.727,6.731,6.729h23.179c0.272-0.002,6.728-0.114,6.728-6.729
				c0-6.65-6.453-6.727-6.728-6.727l-0.112-0.006c-0.062-0.006-5.943-0.622-6.631,3.09l-1.967-0.365
				c0.818-4.405,6.062-5.015,8.768-4.719c3.033,0.023,8.67,1.868,8.67,8.727C63.485,41.259,57.776,43.083,54.758,43.083z"/>
		</g>
		<g>
			<path fill="#272824" d="M32.923,29.349c-1.059-0.945-1.142-2.512-1.148-2.687c-0.014-0.12-0.427-4.54,2.542-7.826
				c2.019-2.235,5.062-3.369,9.045-3.369c3.946,0,7.052,1.123,9.23,3.337c3.203,3.255,3.169,7.654,3.166,7.839l-2-0.032l1,0.016
				l-1-0.014c0.001-0.037,0.01-3.777-2.606-6.422c-1.789-1.808-4.41-2.725-7.79-2.725c-3.393,0-5.938,0.912-7.562,2.71
				c-2.378,2.633-2.034,6.312-2.031,6.349c0.015,0.289,0.126,1.01,0.486,1.331L32.923,29.349z"/>
		</g>
	</g>
	<g id="BLANC">
		<g>
			<path fill="#FFFFFF" d="M41.051,33.193c0,0,0-10.161-11.561-10.161c-11.622,0-10.587,10.161-10.587,10.161s-8.762,0-8.762,7.727
				c0,7.728,7.728,7.728,7.728,7.728h23.182c0,0,7.727,0,7.727-7.728C48.778,33.193,41.051,33.193,41.051,33.193
				s-6.857-0.788-7.727,3.901"/>
		</g>
		<g>
			<path fill="#272824" d="M41.052,49.648H17.869c-3.019,0-8.728-1.824-8.728-8.728s6.386-8.728,9.762-8.728l0.002,2
				c-0.317,0.001-7.764,0.105-7.764,6.728c0,6.651,6.453,6.728,6.728,6.728h23.183c0.272-0.002,6.727-0.114,6.727-6.728
				c0-6.651-6.452-6.728-6.727-6.728l-0.112-0.007c-0.062-0.005-5.944-0.623-6.632,3.091l-1.967-0.365
				c0.817-4.403,6.062-5.012,8.769-4.719c3.033,0.023,8.669,1.868,8.669,8.728C49.778,47.824,44.07,49.648,41.052,49.648z"/>
		</g>
		<g>
			<path fill="#272824" d="M19.064,35.914c-1.06-0.944-1.143-2.511-1.149-2.687c-0.014-0.12-0.427-4.54,2.542-7.826
				c2.02-2.235,5.063-3.369,9.045-3.369c12.417,0,12.561,11.049,12.561,11.161h-2h1l-1,0.003c-0.002-0.375-0.17-9.164-10.561-9.164
				c-3.393,0-5.937,0.912-7.562,2.71c-2.379,2.633-2.035,6.312-2.031,6.35c0.015,0.288,0.126,1.008,0.486,1.33L19.064,35.914z"/>
		</g>
	</g>
</g>
<g>
</g>
<g>
</g>
</svg>
