<?xml version="1.0" encoding="utf-8"?>
<!-- Generator: Adobe Illustrator 17.0.0, SVG Export Plug-In . SVG Version: 6.00 Build 0)  -->
<!DOCTYPE svg PUBLIC "-//W3C//DTD SVG 1.1 Tiny//EN" "http://www.w3.org/Graphics/SVG/1.1/DTD/svg11-tiny.dtd">
<svg version="1.1" baseProfile="tiny" id="Calque_1"
	 xmlns="http://www.w3.org/2000/svg" xmlns:xlink="http://www.w3.org/1999/xlink" x="0px" y="0px" width="65.2px" height="65.2px"
	 viewBox="0 0 65.2 65.2" xml:space="preserve">
<g>
</g>
<g>
	<g>
		<g>
			<path fill="#DADADA" d="M2.405,18.937c0,0-0.982,0-0.982,0.982v1.569c0,0,0,0.982,0.982,0.982h22.36c0,0,0.982,0,0.982-0.982
				v-1.569c0,0,0-0.982-0.982-0.982H2.405z"/>
		</g>
		<g>
			<path d="M24.765,22.736H2.405c-0.915,0-1.247-0.746-1.247-1.247v-1.569c0-0.915,0.746-1.247,1.247-1.247h22.36
				c0.915,0,1.247,0.746,1.247,1.247v1.569C26.012,22.404,25.266,22.736,24.765,22.736z M2.405,19.203
				c-0.118,0.001-0.717,0.043-0.717,0.717v1.569c0.001,0.118,0.043,0.717,0.717,0.717h22.359c0.122-0.001,0.718-0.044,0.718-0.717
				v-1.569c-0.001-0.118-0.043-0.717-0.717-0.717H2.405z"/>
		</g>
		<g>
			<path fill="#DADADA" d="M6.092,35.965c0,0-0.982,0-0.982,0.982v1.569c0,0,0,0.982,0.982,0.982h24.381c0,0,0.982,0,0.982-0.982
				v-1.569c0,0,0-0.982-0.982-0.982H6.092z"/>
		</g>
		<g>
			<path d="M30.473,39.764H6.092c-0.915,0-1.247-0.746-1.247-1.247v-1.569c0-0.915,0.746-1.247,1.247-1.247h24.381
				c0.915,0,1.247,0.746,1.247,1.247v1.569C31.72,39.432,30.975,39.764,30.473,39.764z M6.092,36.229
				c-0.118,0.002-0.717,0.043-0.717,0.718v1.569c0.001,0.118,0.043,0.718,0.717,0.718h24.38c0.122-0.002,0.718-0.045,0.718-0.718
				v-1.569c-0.001-0.118-0.043-0.718-0.717-0.718H6.092z"/>
		</g>
		<g>
			<path fill="#DADADA" d="M28.272,23.809c0,0-0.982,0-0.982,0.982v1.569c0,0,0,0.982,0.982,0.982h34.523c0,0,0.982,0,0.982-0.982
				v-1.569c0,0,0-0.982-0.982-0.982H28.272z"/>
		</g>
		<g>
			<path d="M62.795,27.607H28.272c-0.915,0-1.247-0.746-1.247-1.248v-1.569c0-0.915,0.746-1.248,1.247-1.248h34.523
				c0.915,0,1.247,0.746,1.247,1.248v1.569C64.042,27.275,63.296,27.607,62.795,27.607z M28.272,24.074
				c-0.118,0.001-0.717,0.043-0.717,0.717v1.569c0.001,0.119,0.043,0.717,0.717,0.717h34.523c0.121-0.001,0.718-0.044,0.718-0.717
				v-1.569c-0.002-0.119-0.043-0.717-0.718-0.717H28.272z"/>
		</g>
		<g>
			<path fill="#DADADA" d="M20.367,42.729c0,0-0.982,0-0.982,0.982v1.569c0,0,0,0.982,0.982,0.982H49.01c0,0,0.982,0,0.982-0.982
				v-1.569c0,0,0-0.982-0.982-0.982H20.367z"/>
		</g>
		<g>
			<path d="M49.01,46.527H20.367c-0.915,0-1.247-0.746-1.247-1.247v-1.569c0-0.914,0.746-1.246,1.247-1.246H49.01
				c0.914,0,1.246,0.745,1.246,1.246v1.569C50.256,46.195,49.511,46.527,49.01,46.527z M20.367,42.994
				c-0.118,0.002-0.717,0.043-0.717,0.717v1.569c0.001,0.118,0.043,0.718,0.717,0.718H49.01c0.121-0.002,0.717-0.045,0.717-0.718
				v-1.569c-0.002-0.118-0.043-0.717-0.717-0.717H20.367z"/>
		</g>
		<g>
			<path fill="#DADADA" d="M14.272,29.847c0,0-0.982,0-0.982,0.982v1.569c0,0,0,0.982,0.982,0.982h17.342c0,0,0.982,0,0.982-0.982
				v-1.569c0,0,0-0.982-0.982-0.982H14.272z"/>
		</g>
		<g>
			<path d="M31.613,33.646H14.271c-0.915,0-1.247-0.746-1.247-1.247V30.83c0-0.915,0.746-1.247,1.247-1.247h17.342
				c0.915,0,1.247,0.746,1.247,1.247v1.569C32.86,33.314,32.115,33.646,31.613,33.646z M14.271,30.113
				c-0.118,0.001-0.717,0.043-0.717,0.717v1.569c0.001,0.118,0.043,0.717,0.717,0.717h17.341c0.122-0.001,0.718-0.044,0.718-0.717
				V30.83c-0.001-0.118-0.043-0.717-0.717-0.717H14.271z"/>
		</g>
	</g>
	<g>
		<path d="M39.421,35.245c0,0.69-0.19,1.253-0.571,1.688c-0.382,0.435-0.856,0.652-1.427,0.652c-0.244,0-0.459-0.026-0.644-0.078
			s-0.36-0.128-0.526-0.227l-0.059,0.219h-1.352V31.42h1.41v2.148c0.216-0.172,0.437-0.312,0.661-0.418
			c0.226-0.106,0.484-0.16,0.778-0.16c0.554,0,0.98,0.2,1.28,0.6C39.271,33.99,39.421,34.542,39.421,35.245z M37.972,35.274
			c0-0.39-0.066-0.69-0.199-0.9c-0.132-0.211-0.368-0.316-0.709-0.316c-0.133,0-0.269,0.021-0.409,0.061s-0.274,0.098-0.401,0.174
			v2.199c0.102,0.036,0.197,0.062,0.288,0.074s0.2,0.02,0.328,0.02c0.371,0,0.647-0.109,0.83-0.327
			C37.881,36.039,37.972,35.711,37.972,35.274z"/>
		<path d="M43.616,34.452h-0.125c-0.06-0.021-0.155-0.036-0.288-0.047s-0.243-0.016-0.331-0.016c-0.2,0-0.377,0.013-0.53,0.039
			s-0.318,0.07-0.495,0.133v2.938h-1.41v-4.387h1.41v0.645c0.31-0.266,0.578-0.442,0.807-0.529s0.439-0.131,0.632-0.131
			c0.049,0,0.104,0.001,0.167,0.004s0.117,0.007,0.164,0.012V34.452z"/>
		<path d="M48.784,37.499h-1.41v-0.484c-0.26,0.198-0.498,0.349-0.714,0.451s-0.474,0.154-0.772,0.154
			c-0.483,0-0.856-0.14-1.118-0.418c-0.261-0.278-0.392-0.69-0.392-1.234v-2.856h1.41v2.176c0,0.222,0.007,0.405,0.021,0.553
			s0.048,0.269,0.1,0.365c0.05,0.097,0.124,0.167,0.225,0.211s0.24,0.066,0.42,0.066c0.12,0,0.253-0.022,0.398-0.066
			s0.286-0.109,0.422-0.195v-3.11h1.41V37.499z"/>
		<path d="M54.397,34.39v3.109h-1.41v-2.191c0-0.214-0.005-0.396-0.016-0.545s-0.039-0.271-0.086-0.365s-0.118-0.162-0.213-0.205
			s-0.229-0.064-0.4-0.064c-0.138,0-0.272,0.028-0.402,0.084s-0.247,0.115-0.352,0.178v3.109h-1.41v-4.387h1.41v0.484
			c0.242-0.19,0.474-0.339,0.694-0.445c0.222-0.106,0.466-0.16,0.733-0.16c0.289,0,0.544,0.064,0.765,0.193
			c0.222,0.129,0.395,0.318,0.519,0.568c0.281-0.237,0.555-0.423,0.819-0.559c0.266-0.136,0.525-0.203,0.78-0.203
			c0.474,0,0.833,0.142,1.078,0.426c0.246,0.284,0.369,0.693,0.369,1.227v2.855h-1.41v-2.191c0-0.216-0.005-0.398-0.014-0.547
			s-0.037-0.27-0.084-0.363c-0.044-0.094-0.114-0.162-0.211-0.205s-0.231-0.064-0.406-0.064c-0.117,0-0.231,0.021-0.344,0.061
			S54.559,34.296,54.397,34.39z"/>
		<path d="M62.897,35.565h-3.219c0.021,0.344,0.151,0.606,0.393,0.789s0.596,0.273,1.064,0.273c0.297,0,0.585-0.054,0.863-0.16
			s0.499-0.222,0.66-0.344h0.156v1.129c-0.317,0.128-0.617,0.22-0.898,0.277s-0.593,0.086-0.934,0.086
			c-0.88,0-1.555-0.198-2.023-0.594s-0.703-0.96-0.703-1.691c0-0.724,0.222-1.298,0.666-1.721c0.444-0.423,1.053-0.635,1.826-0.635
			c0.714,0,1.25,0.181,1.609,0.541s0.539,0.88,0.539,1.557V35.565z M61.499,34.741c-0.008-0.294-0.081-0.516-0.219-0.664
			c-0.138-0.149-0.353-0.223-0.645-0.223c-0.271,0-0.493,0.07-0.668,0.211c-0.175,0.141-0.272,0.366-0.293,0.676H61.499z"/>
	</g>
</g>
</svg>
